<svg width="30" height="30" viewBox="0 0 30 30" fill="none" xmlns="http://www.w3.org/2000/svg">
<path d="M15 12.1435C17.8108 12.1435 20.0976 9.86832 20.0976 7.07175C20.0976 4.27517 17.8108 2 15 2C12.1891 2 9.90232 4.27517 9.90232 7.07175C9.90232 9.86832 12.1891 12.1435 15 12.1435ZM15 3.74888C16.8416 3.74888 18.3398 5.23951 18.3398 7.07175C18.3398 8.90399 16.8416 10.3946 15 10.3946C13.1584 10.3946 11.6601 8.90399 11.6601 7.07175C11.6601 5.23951 13.1584 3.74888 15 3.74888ZM25.3125 12.1435C27.0894 12.1435 28.5351 10.7052 28.5351 8.93722C28.5351 7.16928 27.0894 5.73094 25.3125 5.73094C23.5355 5.73094 22.0898 7.16928 22.0898 8.93722C22.0898 10.7052 23.5355 12.1435 25.3125 12.1435ZM25.3125 7.47982C26.1202 7.47982 26.7773 8.13361 26.7773 8.93722C26.7773 9.74083 26.1202 10.3946 25.3125 10.3946C24.5047 10.3946 23.8476 9.74083 23.8476 8.93722C23.8476 8.13361 24.5047 7.47982 25.3125 7.47982ZM26.0214 14.1256H24.6621C23.0602 14.1256 21.6774 15.0672 21.0472 16.4196C19.7499 15.0106 17.8865 14.1256 15.8191 14.1256H14.1809C12.1135 14.1256 10.2501 15.0106 8.95276 16.4196C8.32258 15.0672 6.93977 14.1256 5.33788 14.1256H3.97851C1.78476 14.1256 0 15.8905 0 18.06V24.4265C0 25.3683 0.773084 26.1345 1.72336 26.1345H7.09797C7.18809 27.178 8.07004 28 9.1419 28H20.8581C21.9299 28 22.8119 27.178 22.902 26.1345H28.2152C29.1994 26.1345 30 25.3411 30 24.3658V18.06C29.9999 15.8905 28.2152 14.1256 26.0214 14.1256ZM1.75781 18.06C1.75781 16.8549 2.75402 15.8744 3.97851 15.8744H5.33788C6.56237 15.8744 7.55858 16.8549 7.55858 18.06V18.6587C6.96755 20.1898 7.08983 21.1074 7.08983 24.3857H1.75781V18.06ZM21.1523 25.9584C21.1522 26.036 21.1212 26.1104 21.066 26.1653C21.0109 26.2202 20.9361 26.251 20.8581 26.2511H9.14184C9.06384 26.251 8.98906 26.2202 8.93391 26.1653C8.87876 26.1104 8.84773 26.036 8.84764 25.9584V21.1807C8.84764 18.2548 11.2401 15.8744 14.1809 15.8744H15.819C18.7598 15.8744 21.1523 18.2548 21.1523 21.1806V25.9584ZM28.2421 24.3658C28.2421 24.396 28.5698 24.3857 22.9101 24.3857C22.9101 21.0831 23.0315 20.1873 22.4414 18.6587V18.06C22.4414 16.8549 23.4376 15.8744 24.6621 15.8744H26.0214C27.2459 15.8744 28.2421 16.8549 28.2421 18.06V24.3658ZM4.68749 12.1435C6.46446 12.1435 7.91014 10.7052 7.91014 8.93722C7.91014 7.16928 6.46446 5.73094 4.68749 5.73094C2.91052 5.73094 1.46484 7.16928 1.46484 8.93722C1.46484 10.7052 2.91052 12.1435 4.68749 12.1435ZM4.68749 7.47982C5.4952 7.47982 6.15233 8.13361 6.15233 8.93722C6.15233 9.74083 5.4952 10.3946 4.68749 10.3946C3.87978 10.3946 3.22265 9.74083 3.22265 8.93722C3.22265 8.13361 3.87978 7.47982 4.68749 7.47982Z" fill="#767676"/>
</svg>
