<svg width="64" height="64" viewBox="0 0 64 64" fill="none" xmlns="http://www.w3.org/2000/svg">
<path d="M2 63H46C46.2652 63 46.5196 62.8946 46.7071 62.7071C46.8946 62.5196 47 62.2652 47 62V51C47.0022 48.46 46.204 45.9839 44.7189 43.9233C43.2338 41.8627 41.1373 40.3223 38.727 39.521L29 36.28V33.647C29.3376 33.4509 29.6632 33.2349 29.975 33H41C41.2099 33 41.4144 32.934 41.5847 32.8112C41.755 32.6885 41.8823 32.5153 41.9487 32.3162C42.0151 32.1171 42.0171 31.9022 41.9545 31.7018C41.8919 31.5015 41.7679 31.3259 41.6 31.2C40.4848 30.3593 39.5794 29.2718 38.9548 28.0226C38.3302 26.7734 38.0034 25.3966 38 24V15C38 11.287 36.525 7.72601 33.8995 5.1005C31.274 2.475 27.713 1 24 1C20.287 1 16.726 2.475 14.1005 5.1005C11.475 7.72601 10 11.287 10 15V24C9.99661 25.3966 9.66981 26.7734 9.04523 28.0226C8.42065 29.2718 7.51525 30.3593 6.4 31.2C6.2321 31.3259 6.10807 31.5015 6.04549 31.7018C5.98291 31.9022 5.98495 32.1171 6.05132 32.3162C6.11769 32.5153 6.24503 32.6885 6.41529 32.8112C6.58556 32.934 6.79012 33 7 33H18.025C18.3368 33.2349 18.6624 33.4509 19 33.647V36.28L9.273 39.521C6.86273 40.3223 4.76618 41.8627 3.28109 43.9233C1.79599 45.9839 0.997852 48.46 1 51V62C1 62.2652 1.10536 62.5196 1.2929 62.7071C1.48043 62.8946 1.73479 63 2 63ZM11 49V41.054L14 40.054V49H11ZM11 51H37V61H34V55C34 54.7348 33.8946 54.4804 33.7071 54.2929C33.5196 54.1054 33.2652 54 33 54H15C14.7348 54 14.4804 54.1054 14.2929 54.2929C14.1054 54.4804 14 54.7348 14 55V61H11V51ZM37 49H34V40.054L37 41.054V49ZM32 61H16V56H32V61ZM45 51V61H39V41.775C40.7864 42.566 42.3044 43.859 43.3696 45.4967C44.4348 47.1344 45.0012 49.0463 45 51ZM38.519 31H31.981C32.8783 29.8191 33.4998 28.4524 33.8 27H34C34.8056 27.0011 35.5925 26.7569 36.256 26.3C36.6263 28.0242 37.402 29.6353 38.519 31ZM34 21C34.5304 21 35.0391 21.2107 35.4142 21.5858C35.7893 21.9609 36 22.4696 36 23C36 23.5304 35.7893 24.0391 35.4142 24.4142C35.0391 24.7893 34.5304 25 34 25V21ZM24 3C27.1815 3.00344 30.2318 4.26883 32.4815 6.51852C34.7312 8.76821 35.9966 11.8185 36 15V19.556C35.3947 19.1961 34.7043 19.0041 34 19V18C34 17.7348 33.8946 17.4804 33.7071 17.2929C33.5196 17.1054 33.2652 17 33 17H27C25.9391 17 24.9217 16.5786 24.1716 15.8284C23.4214 15.0783 23 14.0609 23 13C23 12.8163 22.9494 12.6361 22.8538 12.4792C22.7581 12.3224 22.6211 12.1949 22.4578 12.1108C22.2944 12.0267 22.1111 11.9893 21.9278 12.0025C21.7446 12.0158 21.5685 12.0793 21.419 12.186L14.419 17.186C14.2894 17.2785 14.1838 17.4007 14.1109 17.5422C14.038 17.6838 14 17.8408 14 18V19C13.2958 19.0041 12.6054 19.1961 12 19.556V15C12.0034 11.8185 13.2688 8.76821 15.5185 6.51852C17.7682 4.26883 20.8185 3.00344 24 3ZM14 25C13.4696 25 12.9609 24.7893 12.5858 24.4142C12.2107 24.0391 12 23.5304 12 23C12 22.4696 12.2107 21.9609 12.5858 21.5858C12.9609 21.2107 13.4696 21 14 21V25ZM11.744 26.3C12.4075 26.7569 13.1944 27.0011 14 27H14.2C14.4996 28.4522 15.1205 29.8189 16.017 31H9.481C10.598 29.6353 11.3737 28.0242 11.744 26.3ZM16 25V18.515L21.262 14.756C21.6397 15.9835 22.4006 17.0578 23.4331 17.8216C24.4657 18.5853 25.7157 18.9983 27 19H32V25C32 27.1217 31.1571 29.1566 29.6569 30.6569C28.1566 32.1571 26.1217 33 24 33C21.8783 33 19.8434 32.1571 18.3431 30.6569C16.8429 29.1566 16 27.1217 16 25ZM24 35C25.0177 35.0006 26.0294 34.8451 27 34.539V36.7L24 41.2L21 36.7V34.539C21.9706 34.8451 22.9823 35.0006 24 35ZM19.592 38.191L23.168 43.555C23.2593 43.692 23.383 43.8043 23.5282 43.8819C23.6733 43.9596 23.8354 44.0002 24 44.0002C24.1646 44.0002 24.3267 43.9596 24.4718 43.8819C24.617 43.8043 24.7407 43.692 24.832 43.555L28.408 38.191L32 39.388V49H16V39.388L19.592 38.191ZM3 51C2.99878 49.0463 3.5652 47.1344 4.63038 45.4967C5.69557 43.859 7.21364 42.566 9 41.775V61H3V51Z" fill="#4C959B"/>
<path d="M44.9998 36C44.9998 36.2652 45.1052 36.5196 45.2927 36.7071C45.4803 36.8946 45.7346 37 45.9998 37H48.9998V62C48.9998 62.2652 49.1052 62.5196 49.2927 62.7071C49.4803 62.8946 49.7346 63 49.9998 63H53.9998C54.265 63 54.5194 62.8946 54.7069 62.7071C54.8945 62.5196 54.9998 62.2652 54.9998 62V37H57.9998C58.265 37 58.5194 36.8946 58.7069 36.7071C58.8945 36.5196 58.9998 36.2652 58.9998 36V32.109L62.9758 14.216C63.0082 14.0699 63.0073 13.9184 62.9733 13.7727C62.9392 13.627 62.873 13.4907 62.7793 13.3741C62.6856 13.2574 62.567 13.1632 62.4321 13.0984C62.2972 13.0337 62.1495 13.0001 61.9998 13H57.9998C57.7899 12.9999 57.5852 13.066 57.4149 13.1888C57.2445 13.3115 57.1172 13.4848 57.0508 13.684L55.9998 16.838L54.9488 13.684C54.8825 13.4848 54.7551 13.3115 54.5848 13.1888C54.4144 13.066 54.2098 12.9999 53.9998 13H41.9998C41.8501 13 41.7023 13.0337 41.5673 13.0985C41.4323 13.1633 41.3136 13.2576 41.2199 13.3744C41.1262 13.4912 41.0599 13.6275 41.026 13.7734C40.9921 13.9192 40.9913 14.0708 41.0238 14.217L44.9998 32.109V36ZM52.9998 61H50.9998V37H52.9998V61ZM56.9998 35H46.9998V33H56.9998V35ZM45.2188 15L47.0298 22.244L48.9698 21.758L47.2808 15H49.2188L51.0298 22.243L52.9698 21.757L51.2808 15H53.2808L55.0528 20.316C55.1186 20.5161 55.2458 20.6903 55.4164 20.8138C55.587 20.9373 55.7922 21.0037 56.0028 21.0037C56.2134 21.0037 56.4187 20.9373 56.5892 20.8138C56.7598 20.6903 56.8871 20.5161 56.9528 20.316L58.7208 15H60.7528L57.1998 31H46.7998L43.2468 15H45.2188Z" fill="#4C959B"/>
</svg>
