<svg width="1076" height="1044" viewBox="0 0 1076 1044" fill="none" xmlns="http://www.w3.org/2000/svg">
<path d="M92.5902 -665.268C58.4407 -792.37 132.18 -850.793 173.319 -864.117L781.052 -1099.86L1592.14 991.04L984.407 1226.79C945.045 1244.69 851.197 1251.28 790.702 1134.39C715.083 988.291 659.05 1014.77 603.337 1009.51C547.624 1004.26 486.581 985.261 473.003 840.379C459.426 695.498 422.215 562.945 296.559 499.472C196.034 448.694 158.775 376.245 148.001 348.472C137.228 320.699 115.885 242.076 155.871 136.792C205.853 5.18674 143.943 -117.785 56.2681 -233.923C-31.407 -350.062 0.858255 -405.251 38.4526 -446.703C76.047 -488.155 135.277 -506.39 92.5902 -665.268Z" fill="url(#paint0_linear_101_329)"/>
<defs>
<linearGradient id="paint0_linear_101_329" x1="916.786" y1="1075.55" x2="-309.868" y2="-237.851" gradientUnits="userSpaceOnUse">
<stop stop-color="#57AAA9"/>
<stop offset="1" stop-color="#356A7E"/>
</linearGradient>
</defs>
</svg>
