<svg width="1319" height="1044" viewBox="0 0 1319 1044" fill="none" xmlns="http://www.w3.org/2000/svg">
<path opacity="0.02" d="M93.7414 209.219C-28.2394 120.061 -4.2842 14.7387 22.9411 -26.7781L397.144 -674.917L2626.87 612.417L2252.67 1260.56C2230.33 1304.89 2151.09 1378.3 2012.89 1317.24C1840.14 1240.91 1809.04 1304.91 1755.41 1340.29C1701.78 1375.67 1633.5 1402.59 1517.14 1282.72C1400.78 1162.86 1272.13 1071.03 1114.05 1104.63C987.576 1131.51 902.125 1093.5 872.508 1076.4C842.89 1059.3 767.24 1004.3 727.287 881.335C677.345 727.624 533.496 662.134 371.509 621.293C209.522 580.452 198.694 507.859 202.515 443.725C206.337 379.59 246.218 320.665 93.7414 209.219Z" fill="black"/>
</svg>
