<svg width="64" height="64" viewBox="0 0 64 64" fill="none" xmlns="http://www.w3.org/2000/svg">
<path d="M4 45H6.216L9.016 62.161C9.05412 62.3947 9.17395 62.6073 9.35414 62.761C9.53433 62.9146 9.7632 62.9993 10 63H34C34.2388 62.9999 34.4697 62.9144 34.6509 62.7588C34.8321 62.6033 34.9517 62.388 34.988 62.152L38.988 36.152C38.996 36.1017 39 36.0509 39 36V28C39.0008 27.4733 38.8967 26.9517 38.6937 26.4656C38.4908 25.9796 38.1931 25.5388 37.818 25.169C37.9389 24.7911 38.0003 24.3967 38 24C37.9999 23.2464 37.7869 22.5082 37.3857 21.8704C36.9844 21.2326 36.4111 20.7211 35.7318 20.3948C35.0526 20.0686 34.2949 19.9408 33.5463 20.0263C32.7976 20.1118 32.0882 20.407 31.5 20.878C30.9118 20.407 30.2024 20.1118 29.4537 20.0263C28.705 19.9408 27.9474 20.0686 27.2682 20.3948C26.5889 20.7211 26.0156 21.2326 25.6143 21.8704C25.213 22.5082 25.0001 23.2464 25 24C25 24.1766 25.012 24.353 25.036 24.528C25.023 24.535 25.013 24.545 25 24.552V8C25 7.20435 24.6839 6.44129 24.1213 5.87868C23.5587 5.31607 22.7956 5 22 5C21.2043 5 20.4413 5.31607 19.8787 5.87868C19.3161 6.44129 19 7.20435 19 8V27H17V24C17 23.2044 16.6839 22.4413 16.1213 21.8787C15.5587 21.3161 14.7956 21 14 21H4C3.20435 21 2.44129 21.3161 1.87868 21.8787C1.31607 22.4413 1 23.2044 1 24V42C1 42.7956 1.31607 43.5587 1.87868 44.1213C2.44129 44.6839 3.20435 45 4 45ZM33.142 61H10.851L8.243 45H14C14.7956 45 15.5587 44.6839 16.1213 44.1213C16.6839 43.5587 17 42.7956 17 42V37H20.363C21.0401 39.844 22.655 42.3772 24.9475 44.1913C27.24 46.0054 30.0765 46.9948 33 47H35.3L33.142 61ZM33 43H35.911L35.6 45H33C30.0837 44.9966 27.2878 43.8365 25.2256 41.7744C23.1635 39.7122 22.0034 36.9163 22 34C22 33.7348 22.1054 33.4804 22.2929 33.2929C22.4804 33.1054 22.7348 33 23 33C23.2652 33 23.5196 33.1054 23.7071 33.2929C23.8946 33.4804 24 33.7348 24 34C24.0026 36.3861 24.9517 38.6738 26.639 40.361C28.3262 42.0483 30.6139 42.9974 33 43ZM26.685 37H36.834L36.219 41H33C31.677 40.9982 30.3815 40.6215 29.2639 39.9135C28.1462 39.2056 27.252 38.1954 26.685 37ZM26.485 26.081C26.6212 26.0441 26.7481 25.9788 26.8573 25.8894C26.9665 25.8 27.0555 25.6884 27.1185 25.5622C27.1815 25.4359 27.2171 25.2977 27.2228 25.1567C27.2286 25.0157 27.2045 24.875 27.152 24.744C27.0288 24.4412 26.982 24.1129 27.0157 23.7877C27.0493 23.4626 27.1624 23.1508 27.345 22.8797C27.5276 22.6086 27.774 22.3866 28.0626 22.2332C28.3512 22.0798 28.6732 21.9997 29 22C29.3306 22.0006 29.6559 22.083 29.9468 22.2401C30.2377 22.3972 30.4852 22.6239 30.667 22.9C30.7635 23.0301 30.889 23.1358 31.0337 23.2086C31.1783 23.2814 31.338 23.3194 31.5 23.3194C31.6619 23.3194 31.8216 23.2814 31.9663 23.2086C32.111 23.1358 32.2365 23.0301 32.333 22.9C32.5702 22.5422 32.9162 22.2702 33.3199 22.1242C33.7235 21.9782 34.1635 21.966 34.5746 22.0894C34.9858 22.2127 35.3464 22.4651 35.6031 22.8091C35.8597 23.1532 35.9989 23.5707 36 24C35.997 24.3434 35.9039 24.6799 35.73 24.976C35.603 25.1994 35.5668 25.463 35.629 25.7123C35.6912 25.9617 35.847 26.1775 36.064 26.315C36.3351 26.4875 36.5611 26.7224 36.723 27H25.279C25.5443 26.5489 25.9752 26.2191 26.48 26.081H26.485ZM21 8C21 7.73478 21.1054 7.48043 21.2929 7.29289C21.4804 7.10536 21.7348 7 22 7C22.2652 7 22.5196 7.10536 22.7071 7.29289C22.8946 7.48043 23 7.73478 23 8V27H21V8ZM37 29V35H26.08C26.0295 34.669 26.0028 34.3348 26 34C26 33.2044 25.6839 32.4413 25.1213 31.8787C24.5587 31.3161 23.7956 31 23 31C22.2043 31 21.4413 31.3161 20.8787 31.8787C20.3161 32.4413 20 33.2044 20 34C20 34.338 20.025 34.669 20.051 35H17V29H37ZM3 24C3 23.7348 3.10536 23.4804 3.29289 23.2929C3.48043 23.1054 3.73478 23 4 23H14C14.2652 23 14.5196 23.1054 14.7071 23.2929C14.8946 23.4804 15 23.7348 15 24V42C15 42.2652 14.8946 42.5196 14.7071 42.7071C14.5196 42.8946 14.2652 43 14 43H4C3.73478 43 3.48043 42.8946 3.29289 42.7071C3.10536 42.5196 3 42.2652 3 42V24Z" fill="#4C959B"/>
<path d="M6 26H7.99981V40H6V26ZM9.99962 26H11.9994V40H9.99962V26ZM57.995 45H54.9953V4C54.9953 3.20435 54.6793 2.44129 54.1167 1.87868C53.5541 1.31607 52.7912 1 51.9956 1C51.2 1 50.437 1.31607 49.8745 1.87868C49.3119 2.44129 48.9959 3.20435 48.9959 4V45H45.9962C44.6707 45.0016 43.4 45.5289 42.4627 46.4662C41.5255 47.4035 40.9982 48.6744 40.9966 50C40.9949 50.1547 41.0292 50.3077 41.0966 50.447L42.2025 52.658C42.7214 53.6956 42.9915 54.8398 42.9915 56C42.9915 57.1601 42.7214 58.3043 42.2025 59.342L41.0966 61.553C41.0202 61.7059 40.9843 61.8758 40.9922 62.0465C41.0002 62.2172 41.0518 62.383 41.142 62.5282C41.2323 62.6733 41.3582 62.7928 41.5078 62.8754C41.6574 62.958 41.8257 63.0009 41.9965 63H61.9946C62.1655 63.0009 62.3338 62.958 62.4834 62.8754C62.633 62.7928 62.7589 62.6733 62.8492 62.5282C62.9394 62.383 62.991 62.2172 62.9989 62.0465C63.0069 61.8758 62.9709 61.7059 62.8945 61.553L61.7886 59.342C61.2698 58.3043 60.9997 57.1601 60.9997 56C60.9997 54.8398 61.2698 53.6956 61.7886 52.658L62.8945 50.447C62.962 50.3077 62.9962 50.1547 62.9945 50C62.9929 48.6744 62.4657 47.4035 61.5284 46.4662C60.5912 45.5289 59.3205 45.0016 57.995 45ZM50.9957 4C50.9957 3.73478 51.101 3.48043 51.2885 3.29289C51.4761 3.10536 51.7304 3 51.9956 3C52.2608 3 52.5151 3.10536 52.7026 3.29289C52.8901 3.48043 52.9955 3.73478 52.9955 4V45H50.9957V4ZM45.9962 47H57.995C58.613 47.0028 59.2151 47.1964 59.7189 47.5544C60.2228 47.9124 60.6037 48.4172 60.8097 49H43.1814C43.3874 48.4172 43.7684 47.9124 44.2722 47.5544C44.776 47.1964 45.3781 47.0028 45.9962 47ZM56.9951 61V56H54.9953V61H52.9955V56H50.9957V61H48.9959V56H46.9961V61H43.6144L43.9964 60.236C44.6539 58.9207 44.9962 57.4705 44.9962 56C44.9962 54.5295 44.6539 53.0792 43.9964 51.764L43.6144 51H60.3768L59.9948 51.764C59.3373 53.0792 58.9949 54.5295 58.9949 56C58.9949 57.4705 59.3373 58.9207 59.9948 60.236L60.3768 61H56.9951Z" fill="#4C959B"/>
<path d="M41.9997 11.0003C41.7898 11.0003 41.5852 11.0663 41.4148 11.189C41.2445 11.3118 41.1172 11.485 41.0508 11.6841C40.4902 13.3504 39.2949 14.7284 37.7242 15.5188L36.5533 16.1036C36.3869 16.1865 36.247 16.3142 36.1491 16.4722C36.0513 16.6302 35.9994 16.8124 35.9994 16.9983C35.9994 17.1842 36.0513 17.3663 36.1491 17.5244C36.247 17.6824 36.3869 17.8101 36.5533 17.893L37.7242 18.4778C39.2949 19.2682 40.4902 20.6462 41.0508 22.3125C41.1166 22.5125 41.2438 22.6866 41.4144 22.8101C41.585 22.9335 41.7901 23 42.0007 23C42.2113 23 42.4165 22.9335 42.5871 22.8101C42.7576 22.6866 42.8849 22.5125 42.9506 22.3125C43.2244 21.4854 43.6593 20.7207 44.2303 20.0625C44.8013 19.4043 45.497 18.8657 46.2773 18.4778L47.4461 17.898C47.6125 17.8151 47.7525 17.6874 47.8503 17.5294C47.9482 17.3713 48 17.1892 48 17.0033C48 16.8174 47.9482 16.6352 47.8503 16.4772C47.7525 16.3192 47.6125 16.1915 47.4461 16.1086L46.2743 15.5238C45.494 15.1359 44.7983 14.5973 44.2273 13.9391C43.6563 13.2809 43.2214 12.5162 42.9476 11.6891C42.8822 11.4892 42.7554 11.315 42.5852 11.1914C42.415 11.0677 42.2101 11.0008 41.9997 11.0003ZM44.8164 16.9983C43.6799 17.6728 42.7148 18.601 41.9967 19.7104C41.2754 18.6051 40.3127 17.6778 39.181 16.9983C40.3123 16.3187 41.2747 15.3914 41.9957 14.2862C42.7141 15.3957 43.6795 16.3239 44.8164 16.9983ZM42.4467 6.10701L41.2748 5.52221C40.4945 5.13427 39.7988 4.59568 39.2279 3.93751C38.6569 3.27934 38.222 2.51463 37.9482 1.68752C37.8824 1.48752 37.7552 1.31337 37.5846 1.18992C37.414 1.06647 37.2088 1 36.9983 1C36.7877 1 36.5825 1.06647 36.4119 1.18992C36.2414 1.31337 36.1141 1.48752 36.0484 1.68752C35.4885 3.35327 34.2943 4.73115 32.7247 5.52221L31.5539 6.10701C31.3875 6.18992 31.2475 6.31756 31.1497 6.47561C31.0518 6.63365 31 6.81584 31 7.0017C31 7.18757 31.0518 7.36976 31.1497 7.5278C31.2475 7.68585 31.3875 7.81349 31.5539 7.8964L32.7247 8.4812C34.2954 9.27164 35.4908 10.6496 36.0514 12.3159C36.1171 12.5159 36.2444 12.69 36.4149 12.8135C36.5855 12.9369 36.7907 13.0034 37.0013 13.0034C37.2118 13.0034 37.417 12.9369 37.5876 12.8135C37.7582 12.69 37.8854 12.5159 37.9512 12.3159C38.2246 11.489 38.6591 10.7245 39.2295 10.0663C39.8 9.40818 40.4951 8.86945 41.2748 8.4812L42.4467 7.9014C42.6131 7.81849 42.753 7.69084 42.8509 7.5328C42.9487 7.37475 43.0005 7.19257 43.0005 7.0067C43.0005 6.82084 42.9487 6.63865 42.8509 6.48061C42.753 6.32256 42.6131 6.19492 42.4467 6.11201V6.10701ZM36.9963 9.71378C36.2752 8.60862 35.3128 7.68134 34.1816 7.0017C35.3128 6.32207 36.2752 5.39479 36.9963 4.28963C37.7147 5.39907 38.6801 6.3273 39.817 7.0017C38.6801 7.6761 37.7147 8.60433 36.9963 9.71378Z" fill="#4C959B"/>
</svg>
