<svg width="64" height="64" viewBox="0 0 64 64" fill="none" xmlns="http://www.w3.org/2000/svg">
<path d="M30.0362 42.0211C30.0362 40.5227 28.8185 39.2115 27.2262 39.2115H18.7027C18.9837 38.5559 19.171 37.6193 19.3583 36.4955C20.295 36.6828 21.2316 36.5891 22.262 36.2145C23.3859 35.7462 24.3226 34.997 25.1656 34.1541C26.6642 34.5287 32.6588 33.7795 33.0334 29.003C33.1271 27.5982 35.3751 26.8489 35.3751 26.8489C35.7497 26.7553 35.9371 26.3807 36.0307 26.0997C36.1244 25.8187 35.8434 25.3505 35.5624 25.1631C33.8764 24.1329 32.0968 23.6647 30.4108 23.6647C26.1959 23.6647 23.3859 26.8489 23.2923 31.8127C23.2923 32.281 23.3859 32.7492 23.6669 33.1239C22.543 34.2477 21.0443 35.0906 19.452 34.716C19.452 33.1239 19.2647 31.2508 18.7027 29.1903C18.2344 27.6918 18.047 26.0997 17.9534 24.6012C18.7027 24.5076 19.452 24.2266 19.9203 23.6647C27.1325 16.0786 23.8543 7.46224 14.3004 4.93353C13.9258 4.83988 13.5511 4.93353 13.3638 5.2145C13.1765 5.49547 13.0828 5.87009 13.2701 6.24471C13.2701 6.24471 14.9561 9.70997 13.3638 11.4894C10.4602 14.7674 11.1158 19.0755 15.1434 23.6647C15.4244 23.9456 15.7054 24.1329 15.9864 24.3202C16.0801 26.0997 16.3611 27.9728 16.8294 29.7523C17.2977 31.4381 17.485 32.9366 17.485 34.2477C15.8927 34.6224 14.4878 33.7795 13.3638 32.6556C13.6448 32.281 13.7384 31.8127 13.7384 31.3444C13.6448 26.3807 10.8348 23.1964 6.6199 23.1964C4.93393 23.1964 3.1543 23.7583 1.46833 24.6949C1.18733 24.8822 1 25.2568 1 25.6314C1 26.006 1.281 26.287 1.65566 26.3807C2.21765 26.568 3.99728 27.4109 3.99728 28.5347C4.18461 31.6254 6.80723 33.5921 11.0222 33.7795C11.0222 33.7795 11.1158 33.7795 11.2095 33.7795C11.3968 33.7795 11.6778 33.7795 11.8651 33.6858C13.3638 35.2779 15.2371 36.4018 17.3914 36.1208C17.2041 37.6193 16.8294 38.7432 16.5484 39.3051H7.18189C5.68325 39.3051 4.37194 40.5227 4.37194 42.1148C4.37194 43.426 5.30859 44.6435 6.6199 44.8308L9.24252 62.1571C9.33619 62.6254 9.71085 63 10.1792 63C10.3665 63 24.7909 63 24.2289 63C24.6973 63 25.0719 62.6254 25.1656 62.1571L27.7882 44.8308C29.0995 44.5498 30.0362 43.426 30.0362 42.0211ZM30.5045 25.5378C31.3475 25.5378 32.1905 25.7251 33.0334 26.006C32.1905 26.6616 31.2538 27.5982 31.1601 28.9094C30.9728 31.2508 28.8185 32.0937 26.6642 32.3746C27.6945 30.8761 28.3502 29.4713 28.3502 29.3776C28.5375 28.9094 28.3502 28.3474 27.8819 28.1601C27.4135 27.9728 26.8516 28.1601 26.6642 28.6284C26.6642 28.6284 26.1022 29.8459 25.2592 31.2508C25.5402 27.6918 27.5072 25.5378 30.5045 25.5378ZM6.05791 28.3474C5.96425 27.0363 5.0276 26.006 4.18461 25.4441C5.0276 25.1631 5.96425 24.9758 6.71357 24.9758C9.71085 24.9758 11.6778 27.1299 11.9588 30.6888C11.0222 29.3776 10.5538 28.1601 10.5538 28.1601C10.3665 27.6918 9.80451 27.5045 9.33619 27.6918C8.86786 27.8792 8.68053 28.4411 8.86786 28.9094C8.96153 29.003 9.52352 30.4079 10.5538 31.9063C8.39954 31.6254 6.24524 30.7825 6.05791 28.3474ZM14.8624 12.6133C16.2674 11.0211 16.0801 8.77341 15.7054 7.27492C22.4493 9.89728 24.4163 16.3595 18.7027 22.3535C18.5154 22.5408 18.2344 22.6344 18.047 22.7281C18.047 18.7009 18.89 15.5166 18.89 15.5166C19.171 14.2991 17.3914 13.8308 17.1104 15.0483C17.0167 15.2357 16.3611 18.0453 16.2674 21.6979C14.0194 19.0755 12.3335 15.6103 14.8624 12.6133ZM6.24524 42.0211C6.24524 41.5529 6.6199 41.0846 7.18189 41.0846H27.2262C27.6945 41.0846 28.1629 41.4592 28.1629 42.0211C28.1629 42.5831 27.7882 42.9577 27.2262 42.9577C18.2344 42.9577 16.1737 42.9577 7.18189 42.9577C6.71357 42.9577 6.24524 42.5831 6.24524 42.0211ZM8.58687 44.8308H13.1765L13.9258 61.0332H11.0222L8.58687 44.8308ZM15.7991 61.0332L14.9561 44.8308H19.3583L18.7027 61.0332H15.7991ZM23.4796 61.0332H20.576L21.419 44.8308H26.0086L23.4796 61.0332ZM59.6343 48.577C59.728 47.5468 59.6343 47.6405 59.6343 40.6163C59.6343 40.0544 59.2597 39.6798 58.6977 39.6798C56.4497 39.6798 54.6701 39.3051 53.1714 38.5559C53.3588 37.5257 53.5461 36.4955 53.5461 35.5589C53.5461 35.0906 53.1714 34.6224 52.5158 34.6224V10.9275L55.2321 8.30514C56.5434 7.08761 56.356 5.77644 56.356 4.46526C56.356 2.59214 54.7637 1 52.7031 1H47.0832C45.1162 1 43.4303 2.49849 43.4303 4.46526C43.4303 5.68278 43.2429 6.99396 44.5542 8.21148L47.2705 10.9275V34.5287C46.5212 34.5287 46.2402 34.997 46.2402 35.4653C46.2402 36.3082 46.3339 37.2447 46.6149 38.2749C45.1162 39.0242 43.3366 39.3988 41.0886 39.5861C40.6203 39.5861 40.2457 40.0544 40.2457 40.5227V47.4532C40.2457 48.7644 40.433 50.0755 40.8076 51.3867C38.466 52.6042 38.2787 53.8218 35.1877 54.1964C31.8158 54.6647 31.1601 54.4773 29.8488 56.5378L29.7552 56.6314C29.0058 57.8489 28.0692 58.8792 27.0389 59.7221C26.6642 60.003 26.5706 60.4713 26.8516 60.9396C27.0389 61.3142 27.5072 61.5015 27.9755 61.3142C29.2868 60.8459 31.2538 62.3444 33.3144 62.0634C34.8131 61.8761 35.7497 60.9396 36.78 60.7523C37.1547 60.6586 37.4357 60.6586 38.185 60.6586C39.2153 60.6586 40.152 60.4713 40.8076 60.565C41.7443 60.8459 42.6809 61.9698 44.0859 62.4381C47.3642 63.5619 50.2678 60.003 51.8601 60.284C52.4221 60.3776 54.6701 62.2508 58.6977 62.4381C60.571 62.5317 61.6013 61.8761 61.7886 60.003C61.7886 58.8792 65.6289 52.6042 59.6343 48.577ZM51.6728 36.4955C51.4855 38.4622 50.5488 41.4592 49.8932 43.426C49.3312 41.5529 48.3008 38.3686 48.1135 36.4955C48.9565 36.4955 51.6728 36.4955 51.6728 36.4955ZM48.8628 9.99094L45.8656 6.99396C45.2099 6.33837 45.3036 5.58912 45.3036 4.55891C45.3036 3.62236 46.1465 2.96677 47.0832 2.96677H52.7968C53.7334 2.96677 54.5764 3.62236 54.5764 4.55891C54.5764 5.58912 54.7637 6.33837 54.0144 6.99396L51.0171 9.89728C50.8298 10.0846 50.7361 10.2719 50.7361 10.5529V34.716H49.2375V10.6465C49.1438 10.3656 49.0502 10.1782 48.8628 9.99094ZM42.0253 47.5468V41.5529C43.9923 41.3656 45.5846 40.9909 46.9895 40.3353C47.5515 42.5831 48.6755 45.9547 48.9565 46.9849C49.2375 47.8278 50.4551 47.8278 50.7361 46.9849C51.1108 45.861 52.1411 42.5831 52.7031 40.5227C54.1081 41.1782 55.7941 41.5529 57.761 41.6465V47.4532C57.1054 47.4532 56.5434 47.9215 56.2624 48.1088C55.0447 49.3263 55.5131 48.3897 53.9207 48.0151C52.4221 47.6405 50.4551 48.858 49.2375 49.7009C45.3972 52.2296 45.5846 50.7311 42.9619 50.8248C42.8683 50.8248 42.7746 50.8248 42.5873 50.8248C42.2126 49.7946 42.0253 48.6707 42.0253 47.5468ZM60.009 59.0665C59.447 60.3776 60.29 61.0332 58.604 60.9396C52.2348 60.565 53.7334 56.9124 48.3008 60.003C45.3036 61.6888 44.6479 61.2205 43.2429 60.1903C40.8076 58.4109 40.2457 59.0665 38.0914 59.0665C36.4991 59.0665 36.2181 59.0665 34.4384 59.9094C32.2841 60.9396 32.3778 60.4713 29.7552 59.8157C31.9095 57.287 31.2538 56.9124 32.9398 56.6314C37.061 56.0695 37.342 56.1631 39.9647 54.29C45.0226 50.6375 43.8986 55.5076 50.0805 51.3867C54.5764 48.3897 53.0778 51.0121 55.6067 50.7311C56.637 50.6375 57.199 49.7946 57.5737 49.5136C58.323 50.5438 63.2873 51.574 60.009 59.0665Z" fill="#4C959B"/>
</svg>
