<svg width="30" height="30" viewBox="0 0 30 30" fill="none" xmlns="http://www.w3.org/2000/svg">
<path d="M26.5136 9.11727L20.3555 8.21957L17.6014 2.62154C16.5377 0.45917 13.4618 0.459828 12.3985 2.62147L9.64445 8.2195L3.48634 9.11727C1.1075 9.46399 0.15795 12.3987 1.87857 14.0814L6.33464 18.4389L5.28273 24.5916C4.87643 26.9684 7.36499 28.7812 9.49205 27.6597L15 24.7546L20.5081 27.6597C22.6322 28.7799 25.1236 26.968 24.7174 24.5916L23.6655 18.4388L28.1216 14.0814C29.8425 12.3981 28.8914 9.46392 26.5136 9.11727ZM26.3856 12.2951L21.4615 17.1102C21.3172 17.2514 21.2092 17.4256 21.1469 17.618C21.0846 17.8103 21.0699 18.0149 21.1039 18.2143L22.2664 25.0134C22.3247 25.3549 21.9706 25.6127 21.665 25.4517L15.5785 22.2416C15.4 22.1475 15.2015 22.0984 14.9999 22.0984C14.7983 22.0984 14.5998 22.1475 14.4214 22.2416L8.33479 25.4517C8.0291 25.6129 7.67512 25.3548 7.73347 25.0134L8.8959 18.2143C8.92996 18.0149 8.91521 17.8103 8.85292 17.618C8.79064 17.4256 8.68267 17.2514 8.53834 17.1102L3.6142 12.2951C3.36686 12.0533 3.50215 11.6358 3.8439 11.5859L10.6489 10.5939C10.8483 10.5648 11.0378 10.4875 11.2009 10.3687C11.364 10.2498 11.4958 10.093 11.585 9.91164L14.6283 3.72549C14.7811 3.41503 15.2187 3.41481 15.3716 3.72556L18.4149 9.91164C18.5041 10.093 18.6359 10.2498 18.799 10.3687C18.9621 10.4875 19.1516 10.5648 19.351 10.5939L26.156 11.5859C26.4977 11.6358 26.6329 12.0533 26.3856 12.2951Z" fill="#767676"/>
</svg>
