<svg width="10" height="6" viewBox="0 0 10 6" fill="none" xmlns="http://www.w3.org/2000/svg">
<path d="M9.98308 0.148856C9.96648 0.104775 9.93865 0.0671518 9.90308 0.0406799C9.86752 0.0142079 9.82578 5.96829e-05 9.78309 4.41807e-07H0.217802C0.175008 -9.08719e-05 0.133143 0.0139744 0.0974514 0.0404341C0.0617602 0.0668937 0.0338312 0.10457 0.0171647 0.148742C0.000498136 0.192914 -0.00416468 0.241617 0.00376079 0.288746C0.0116863 0.335875 0.0318473 0.379334 0.0617174 0.413677L4.84425 5.9262C4.86451 5.94955 4.88874 5.96812 4.91552 5.98079C4.94229 5.99347 4.97106 6 5.00012 6C5.02918 6 5.05795 5.99347 5.08472 5.98079C5.11149 5.96812 5.13573 5.94955 5.15599 5.9262L9.93852 0.413433C9.96829 0.379095 9.98838 0.335688 9.99626 0.288632C10.0042 0.241577 9.99949 0.192961 9.98287 0.148856H9.98308Z" fill="white"/>
</svg>
