<svg width="30" height="30" viewBox="0 0 30 30" fill="none" xmlns="http://www.w3.org/2000/svg">
<g clip-path="url(#clip0_101_460)">
<path d="M15.0001 0C6.72901 0 0 6.72891 0 14.9999C0 23.2709 6.72901 29.9998 15.0001 29.9998C23.2711 29.9998 30 23.2709 30 14.9999C30 6.72891 23.2711 0 15.0001 0ZM15.0001 27.5408C8.0849 27.5408 2.459 21.9151 2.459 14.9999C2.459 8.0848 8.0849 2.459 15.0001 2.459C21.9152 2.459 27.541 8.0848 27.541 14.9999C27.541 21.9151 21.9152 27.5408 15.0001 27.5408Z" fill="#767676"/>
<path d="M20.9226 9.35316L12.1076 18.0886L8.0774 14.0948C7.60212 13.6239 6.83167 13.6239 6.35639 14.0948C5.8812 14.5658 5.8812 15.3292 6.35639 15.8002L11.2471 20.6468C11.36 20.7589 11.4942 20.8479 11.6418 20.9085C11.7895 20.9691 11.9478 21.0002 12.1076 21C12.4191 21 12.7305 20.8822 12.9681 20.6468L22.6436 11.0587C23.1188 10.5877 23.1188 9.82424 22.6436 9.35325C22.1683 8.88227 21.3978 8.88227 20.9226 9.35316Z" fill="#767676"/>
</g>
<defs>
<clipPath id="clip0_101_460">
<rect width="30" height="30" fill="white"/>
</clipPath>
</defs>
</svg>
