<svg width="43" height="43" viewBox="0 0 43 43" fill="none" xmlns="http://www.w3.org/2000/svg">
<path d="M41.18 0.0705546L0.954901 13.2145C-0.18111 13.5857 -0.345392 15.1309 0.688497 15.7321L15.8899 24.5714C16.1245 24.7079 16.3939 24.7725 16.6649 24.7573C16.9358 24.7421 17.1963 24.6478 17.4142 24.486L21.6874 21.3125L18.5139 25.5857C18.3522 25.8036 18.2578 26.0641 18.2426 26.3351C18.2274 26.606 18.2921 26.8755 18.4285 27.11L27.2678 42.3115C27.8696 43.3462 29.4145 43.1801 29.7854 42.0451L42.9294 1.82C43.282 0.739903 42.2548 -0.280895 41.18 0.0705546ZM28.1098 38.2408L21.2861 26.5057L29.5143 15.426C29.7126 15.1589 29.8082 14.8293 29.7838 14.4975C29.7594 14.1657 29.6165 13.8537 29.3812 13.6185C29.146 13.3832 28.834 13.2404 28.5022 13.2159C28.1704 13.1915 27.8408 13.2872 27.5737 13.4854L16.494 21.7137L4.75903 14.8899L39.4434 3.55644L28.1098 38.2408ZM14.5635 30.3979L5.35348 39.6078C4.81183 40.1494 3.93355 40.1496 3.3919 39.6078C2.85016 39.0662 2.85016 38.1879 3.3919 37.6462L12.6019 28.4363C13.1437 27.8948 14.022 27.8946 14.5635 28.4363C15.1052 28.978 15.1052 29.8563 14.5635 30.3979ZM2.39633 30.7464C1.85459 30.2047 1.85459 29.3265 2.39633 28.7848L6.03046 25.1506C6.57211 24.6089 7.45039 24.6089 7.99204 25.1506C8.53378 25.6924 8.53378 26.5706 7.99204 27.1122L4.35791 30.7464C3.81634 31.288 2.93798 31.2881 2.39633 30.7464ZM17.8492 35.0077C18.3909 35.5493 18.3909 36.4276 17.8492 36.9693L14.215 40.6034C14.0863 40.7324 13.9335 40.8347 13.7651 40.9044C13.5968 40.9742 13.4164 41.0099 13.2342 41.0097C12.0095 41.0097 11.3772 39.518 12.2535 38.6418L15.8877 35.0077C16.4292 34.4659 17.3075 34.4659 17.8492 35.0077Z" fill="#4C959B"/>
</svg>
