<svg width="64" height="64" viewBox="0 0 64 64" fill="none" xmlns="http://www.w3.org/2000/svg">
<g clip-path="url(#clip0_140_2150)">
<path d="M31.5 2L1.6548 18.4219C1.04231 18.7589 0.819801 19.5271 1.1581 20.1375L2.3822 22.3474C2.72037 22.9578 3.49089 23.1795 4.10337 22.8424L31.5 7.76942L58.8967 22.8426C59.5092 23.1795 60.2797 22.9578 60.6179 22.3475L61.842 20.1377C62.1801 19.5272 61.9577 18.7589 61.3453 18.422L31.5 2Z" stroke="#4C959B" stroke-width="3" stroke-miterlimit="10" stroke-linecap="round" stroke-linejoin="round"/>
<path d="M45.9859 10.0679V3.27943C45.9859 2.5729 46.5537 2 47.2541 2H53.7318C54.4323 2 55 2.57277 55 3.27943V15.0882M55 20.9324V61.7206C55 62.4272 54.4323 63 53.7318 63H9.26818C8.56774 63 8 62.4271 8 61.7206V57.6294V48.4424V22.9826" stroke="#4C959B" stroke-width="3" stroke-miterlimit="10" stroke-linecap="round" stroke-linejoin="round"/>
<path d="M31 46C34.866 46 38 42.6421 38 38.5C38 34.3579 34.866 31 31 31C27.134 31 24 34.3579 24 38.5C24 42.6421 27.134 46 31 46Z" stroke="#4C959B" stroke-width="3" stroke-miterlimit="10" stroke-linecap="round" stroke-linejoin="round"/>
<path d="M44.5682 25.9921L43.2354 24.6149C42.5858 23.9435 41.5301 23.941 40.8774 24.6092L38.9907 26.5406C37.5245 25.5244 35.8766 24.8179 34.1427 24.4623L34.149 21.7236C34.1511 20.7764 33.4064 20.0067 32.4855 20.0046L30.5964 20C29.6755 19.9978 28.9272 20.7639 28.9251 21.7111L28.9188 24.4497C27.1833 24.7971 25.5323 25.4956 24.0614 26.5047L22.1837 24.5643C21.534 23.8929 20.4783 23.8904 19.8256 24.5586L18.4867 25.9294C17.834 26.5976 17.8315 27.6834 18.4812 28.3548L20.3589 30.2952C19.3709 31.8033 18.6841 33.4983 18.3383 35.2818L15.6757 35.2753C14.7549 35.2731 14.0065 36.0391 14.0044 36.9863L14 38.9294C13.9979 39.8766 14.7427 40.6463 15.6635 40.6485L18.3261 40.6549C18.6638 42.44 19.3429 44.1382 20.324 45.6511L18.4375 47.5825C17.7848 48.2507 17.7823 49.3366 18.432 50.008L19.7647 51.3851C20.4143 52.0565 21.47 52.059 22.1227 51.3908L24.0093 49.4594C25.4755 50.4756 27.1234 51.1821 28.8573 51.5377L28.851 54.2764C28.8489 55.2236 29.5936 55.9933 30.5145 55.9954L32.4036 56C33.3245 56.0022 34.0728 55.2361 34.0749 54.2889L34.0812 51.5503C35.8167 51.2029 37.4677 50.5044 38.9386 49.4953L40.8163 51.4357C41.466 52.1071 42.5217 52.1096 43.1744 51.4414L44.5133 50.0706C45.166 49.4024 45.1685 48.3166 44.5188 47.6452L42.6411 45.7048C43.6291 44.1967 44.3159 42.5017 44.6617 40.7183L47.3243 40.7247C48.2451 40.7269 48.9935 39.9609 48.9956 39.0137L49 37.0706C49.0021 36.1234 48.2574 35.3537 47.3365 35.3515L44.6739 35.3451C44.3362 33.56 43.6571 31.8618 42.676 30.3489L44.5626 28.4175C45.2153 27.7493 45.2178 26.6633 44.5682 25.9921Z" stroke="#4C959B" stroke-width="3" stroke-miterlimit="10" stroke-linecap="round" stroke-linejoin="round"/>
</g>
<defs>
<clipPath id="clip0_140_2150">
<rect width="64" height="64" fill="white"/>
</clipPath>
</defs>
</svg>
