<svg width="64" height="64" viewBox="0 0 64 64" fill="none" xmlns="http://www.w3.org/2000/svg">
<g clip-path="url(#clip0_140_2178)">
<path d="M34.8936 31.6837C35.1933 31.3861 35.3764 30.991 35.4099 30.57C35.4433 30.1489 35.3247 29.7298 35.0757 29.3887L32.6503 26.0404C32.9508 25.4368 33.2092 24.8131 33.4237 24.1738L37.5062 23.5213C37.9235 23.4562 38.3036 23.2436 38.5777 22.9223C38.8518 22.6009 39.0016 22.192 39 21.7696V17.2304C39.0016 16.808 38.8518 16.3991 38.5777 16.0777C38.3036 15.7564 37.9235 15.5438 37.5062 15.4787L33.4237 14.8262C33.2092 14.1869 32.9508 13.5632 32.6503 12.9596L35.0757 9.61132C35.3248 9.27021 35.4433 8.85114 35.4099 8.4301C35.3765 8.00906 35.1933 7.61393 34.8936 7.31638L31.6837 4.10657C31.3862 3.80678 30.9911 3.62356 30.57 3.59012C30.1489 3.55668 29.7298 3.67524 29.3887 3.9243L26.0406 6.34973C25.4369 6.04924 24.8132 5.79081 24.1739 5.57631L23.5214 1.49382C23.4563 1.07652 23.2438 0.696365 22.9224 0.422306C22.601 0.148247 22.1921 -0.00157391 21.7697 1.28098e-05H17.2305C16.8081 -0.0015952 16.3992 0.148234 16.0778 0.422323C15.7564 0.696413 15.5439 1.07661 15.4789 1.49395L14.8264 5.57631C14.1871 5.79081 13.5634 6.04924 12.9597 6.34973L9.61132 3.9243C9.27018 3.6753 8.8511 3.55677 8.43008 3.59021C8.00905 3.62365 7.61394 3.80684 7.31638 4.10657L4.10669 7.31626C3.80691 7.61381 3.62368 8.00895 3.59024 8.43001C3.5568 8.85107 3.67536 9.27018 3.92442 9.61132L6.34973 12.9596C6.04929 13.5633 5.79087 14.187 5.57631 14.8262L1.49395 15.4787C1.07662 15.5438 0.696438 15.7563 0.422353 16.0777C0.148269 16.3991 -0.00156969 16.808 1.24015e-05 17.2304V21.7696C-0.00154378 22.192 0.148304 22.6009 0.422384 22.9223C0.696464 23.2436 1.07663 23.4562 1.49395 23.5213L5.57631 24.1738C5.79081 24.8131 6.04923 25.4368 6.34973 26.0404L3.9243 29.3887C3.67527 29.7298 3.55673 30.1489 3.59017 30.5699C3.62361 30.991 3.80681 31.3861 4.10657 31.6836L7.31626 34.8933C7.61378 35.1931 8.0089 35.3763 8.42994 35.4098C8.85099 35.4432 9.27008 35.3247 9.61119 35.0756L12.9594 32.6503C13.5631 32.9507 14.1868 33.2091 14.8261 33.4237L15.4786 37.5062C15.5437 37.9235 15.7562 38.3036 16.0776 38.5777C16.399 38.8518 16.8079 39.0016 17.2303 39H21.7695C22.1919 39.0016 22.6008 38.8517 22.9222 38.5776C23.2436 38.3036 23.4561 37.9234 23.5211 37.5061L24.1736 33.4237C24.8129 33.2092 25.4366 32.9508 26.0403 32.6503L29.3886 35.0757C29.7297 35.3247 30.1488 35.4432 30.5698 35.4098C30.9908 35.3764 31.3859 35.1932 31.6835 34.8934L34.8936 31.6837ZM26.6752 30.7769C26.5301 30.6718 26.3581 30.6101 26.1793 30.599C26.0005 30.588 25.8223 30.6279 25.6653 30.7143C24.8426 31.1672 23.9724 31.5277 23.0704 31.7893C22.8983 31.8392 22.744 31.937 22.6253 32.0712C22.5067 32.2055 22.4287 32.3708 22.4004 32.5477L21.6711 37.1107H17.329L16.5997 32.5477C16.5714 32.3708 16.4933 32.2055 16.3747 32.0713C16.256 31.937 16.1017 31.8392 15.9295 31.7893C15.0276 31.5278 14.1573 31.1673 13.3347 30.7143C13.1777 30.6279 12.9995 30.588 12.8207 30.599C12.6419 30.6101 12.4699 30.6718 12.3248 30.7769L8.5827 33.4878L5.51232 30.4174L8.2232 26.6752C8.32826 26.5301 8.38993 26.3581 8.40102 26.1793C8.4121 26.0005 8.37214 25.8223 8.2858 25.6653C7.83297 24.8426 7.47245 23.9724 7.21082 23.0705C7.16096 22.8983 7.06318 22.744 6.92889 22.6253C6.7946 22.5067 6.62934 22.4287 6.45239 22.4004L1.88947 21.6711V17.3289L6.45239 16.5996C6.62933 16.5713 6.79457 16.4933 6.92886 16.3746C7.06314 16.256 7.16093 16.1016 7.21082 15.9295C7.47234 15.0276 7.83286 14.1573 8.2858 13.3347C8.3722 13.1778 8.41219 12.9995 8.40111 12.8207C8.39002 12.6419 8.32832 12.4699 8.2232 12.3248L5.51232 8.5827L8.5827 5.51233L12.3248 8.2232C12.4699 8.32831 12.6419 8.39 12.8207 8.40108C12.9995 8.41217 13.1777 8.37219 13.3347 8.2858C14.1574 7.83297 15.0276 7.47245 15.9295 7.21082C16.1017 7.16095 16.2561 7.06317 16.3747 6.92888C16.4934 6.7946 16.5714 6.62934 16.5997 6.45239L17.3289 1.88947H21.6711L22.4004 6.45239C22.4287 6.62933 22.5067 6.79457 22.6254 6.92886C22.744 7.06314 22.8984 7.16093 23.0704 7.21082C23.9724 7.47234 24.8427 7.83286 25.6653 8.2858C25.8223 8.37219 26.0005 8.41217 26.1793 8.40108C26.3581 8.39 26.5301 8.32831 26.6752 8.2232L30.4174 5.51233L33.4878 8.5827L30.7769 12.325C30.6719 12.4701 30.6102 12.642 30.5991 12.8208C30.588 12.9996 30.628 13.1779 30.7143 13.3348C31.1672 14.1575 31.5277 15.0277 31.7892 15.9297C31.839 16.1018 31.9368 16.2562 32.0711 16.3749C32.2054 16.4935 32.3706 16.5715 32.5476 16.5998L37.1107 17.3291V21.6712L32.5476 22.4006C32.3706 22.4288 32.2054 22.5069 32.0711 22.6255C31.9368 22.7442 31.839 22.8986 31.7892 23.0707C31.5276 23.9726 31.1672 24.8429 30.7143 25.6656C30.6279 25.8225 30.5879 26.0008 30.599 26.1796C30.6101 26.3584 30.6718 26.5304 30.7769 26.6754L33.4878 30.4177L30.4174 33.4881L26.6752 30.7769Z" fill="#4C959B"/>
<path d="M28.765 18.6357H26.8395C26.728 17.718 26.4546 16.8277 26.0321 16.0067C25.9151 15.791 25.7187 15.63 25.4851 15.5583C25.2514 15.4865 24.9991 15.5098 24.7823 15.623C24.5655 15.7363 24.4014 15.9305 24.3253 16.164C24.2493 16.3976 24.2672 16.6518 24.3753 16.8722C24.81 17.714 25.0303 18.6233 25.0303 19.5744C25.0303 22.8145 22.4098 25.4506 19.1888 25.4506C15.9678 25.4506 13.3472 22.8145 13.3472 19.5744C13.3472 16.3343 15.9678 13.6983 19.1888 13.6983C20.044 13.6965 20.889 13.8853 21.6631 14.2512C21.8866 14.3526 22.1408 14.3614 22.3708 14.2758C22.6007 14.1901 22.7879 14.0169 22.892 13.7936C22.996 13.5703 23.0085 13.3147 22.9268 13.0822C22.8451 12.8496 22.6757 12.6588 22.4552 12.5508C21.4269 12.0661 20.328 11.8205 19.1889 11.8205C15.2547 11.8205 12.0016 14.8014 11.5391 18.6355H9.61287C9.36533 18.6355 9.12792 18.7345 8.95288 18.9105C8.77784 19.0866 8.6795 19.3254 8.6795 19.5744C8.6795 19.8235 8.77784 20.0623 8.95288 20.2383C9.12792 20.4144 9.36533 20.5133 9.61287 20.5133H11.5392C12.0017 24.3475 15.2548 27.3284 19.189 27.3284C23.1232 27.3284 26.3763 24.3475 26.8388 20.5133H28.7652C28.8886 20.5148 29.0111 20.4915 29.1256 20.445C29.2401 20.3984 29.3443 20.3295 29.4321 20.2422C29.5199 20.1549 29.5896 20.0509 29.6372 19.9363C29.6848 19.8216 29.7092 19.6987 29.7092 19.5744C29.7092 19.4502 29.6847 19.3273 29.6371 19.2126C29.5895 19.098 29.5198 18.994 29.432 18.9067C29.3442 18.8194 29.24 18.7505 29.1255 18.704C29.011 18.6574 28.8885 18.6342 28.765 18.6357ZM23.9366 53.5015C23.8675 53.3997 23.7791 53.3126 23.6765 53.2451C23.5739 53.1776 23.4591 53.1312 23.3387 53.1083C23.2182 53.0855 23.0945 53.0868 22.9745 53.1121C22.8545 53.1374 22.7407 53.1862 22.6395 53.2558C22.4351 53.3963 22.2945 53.6126 22.2487 53.8573C22.2029 54.102 22.2556 54.355 22.3952 54.5606L23.1484 55.67C23.3917 56.0283 23.4049 56.4865 23.1826 56.8658C23.1056 56.9973 22.984 57.1222 22.8308 57.2275L17.2694 61.048C17.2237 61.0795 17.1722 61.1016 17.1179 61.113C17.0637 61.1244 17.0077 61.125 16.9533 61.1146C16.8988 61.1043 16.8469 61.0833 16.8005 61.0528C16.7541 61.0223 16.7141 60.9829 16.683 60.9368L15.9186 59.811C15.8873 59.765 15.8653 59.7132 15.8539 59.6586C15.8426 59.6041 15.842 59.5478 15.8524 59.493C15.8626 59.4382 15.8835 59.386 15.9138 59.3393C15.9441 59.2926 15.9833 59.2525 16.0291 59.2211L17.373 58.2978C17.5257 58.193 17.644 58.0448 17.7129 57.8723C17.7818 57.6997 17.7982 57.5104 17.76 57.3284C17.7217 57.1464 17.6307 56.98 17.4983 56.8502C17.3659 56.7203 17.1982 56.633 17.0164 56.5992C9.97627 55.2898 4.86662 49.109 4.86662 41.9027V41.2211C4.86675 41.1085 4.91124 41.0007 4.99033 40.9211C5.06942 40.8416 5.17665 40.7968 5.2885 40.7967H6.64376C6.75561 40.7968 6.86284 40.8416 6.94193 40.9211C7.02102 41.0007 7.06551 41.1085 7.06564 41.2211V41.9027C7.06564 44.9565 8.16092 47.9117 10.1496 50.2241C12.1174 52.5122 14.8267 54.0257 17.7784 54.4859C17.9583 54.514 18.1424 54.4886 18.3081 54.4128C18.4738 54.3369 18.6139 54.214 18.711 54.0591C18.8081 53.9042 18.8581 53.7241 18.8548 53.541C18.8514 53.3579 18.7949 53.1798 18.6922 53.0286L17.514 51.293C17.4827 51.247 17.4607 51.1952 17.4494 51.1407C17.438 51.0861 17.4375 51.0298 17.4478 50.975C17.458 50.9202 17.4789 50.868 17.5092 50.8213C17.5395 50.7747 17.5787 50.7345 17.6244 50.7031L18.7437 49.9342C18.7894 49.9027 18.8409 49.8805 18.8951 49.8691C18.9493 49.8577 19.0053 49.8572 19.0597 49.8676C19.1142 49.8778 19.1661 49.8988 19.2125 49.9293C19.2589 49.9598 19.2988 49.9992 19.33 50.0453L19.9414 50.9458C20.0811 51.1515 20.2962 51.2929 20.5394 51.3389C20.7827 51.385 21.0342 51.332 21.2386 51.1916C21.443 51.0512 21.5836 50.8348 21.6294 50.5901C21.6753 50.3454 21.6226 50.0924 21.483 49.8868L20.8716 48.9863C20.7027 48.7361 20.4861 48.5221 20.2345 48.3566C19.9828 48.1911 19.701 48.0775 19.4054 48.0222C19.1101 47.9654 18.8065 47.9681 18.5122 48.0301C18.218 48.0921 17.9388 48.2122 17.691 48.3835L16.5718 49.1523C16.3231 49.3222 16.1103 49.54 15.9458 49.7932C15.7813 50.0464 15.6683 50.3299 15.6135 50.6272C15.5252 51.0917 15.5822 51.5723 15.7767 52.0028C11.7502 50.3925 8.93251 46.3959 8.93251 41.9025V41.2208C8.93251 39.9514 7.9058 38.9186 6.64388 38.9186H5.28863C4.02671 38.9186 3 39.9514 3 41.2208V41.9025C3 49.3061 7.79193 55.7482 14.6542 57.9371C14.3246 58.265 14.1026 58.6865 14.018 59.145C13.9615 59.4421 13.9642 59.7475 14.0259 60.0435C14.0875 60.3396 14.2069 60.6204 14.3772 60.8697L15.1415 61.9955C15.3104 62.2457 15.527 62.4598 15.7787 62.6253C16.0303 62.7908 16.3122 62.9044 16.6078 62.9596C16.7507 62.9866 16.894 63 17.0363 63C17.4923 63 17.9374 62.8625 18.3222 62.5983L23.8836 58.7778C24.2673 58.5144 24.5726 58.1917 24.791 57.8189C25.3755 56.821 25.3358 55.5617 24.6899 54.6106L23.9366 53.5015Z" fill="#4C959B"/>
<path d="M43.3245 15.0854C43.4921 15.3369 43.7071 15.5521 43.957 15.7184C44.2069 15.8847 44.4867 15.9989 44.7802 16.0544C45.3762 16.1686 45.9813 16.0399 46.4824 15.6913L47.5937 14.9186C47.8407 14.7478 48.052 14.5289 48.2153 14.2744C48.3787 14.0199 48.4908 13.735 48.5453 13.4361C48.633 12.9622 48.5752 12.4834 48.3831 12.0536C52.3811 13.672 55.1788 17.6891 55.1788 22.2054V22.8905C55.1788 24.1664 56.1982 25.2045 57.4511 25.2045H58.7969C60.05 25.2045 61.0694 24.1664 61.0694 22.8905V22.2054C61.0694 14.7639 56.3114 8.28903 49.4979 6.08896C49.8251 5.75932 50.0455 5.33568 50.1295 4.87487C50.1856 4.57629 50.183 4.26933 50.1218 3.97179C50.0606 3.67425 49.942 3.39203 49.7729 3.14149L49.0139 2.00994C48.8463 1.75841 48.6313 1.54326 48.3814 1.37693C48.1315 1.2106 47.8517 1.0964 47.5582 1.04095C47.265 0.983816 46.9636 0.986492 46.6714 1.04883C46.3792 1.11116 46.102 1.23191 45.856 1.40409L40.3341 5.24404C39.9531 5.50878 39.65 5.83316 39.4331 6.20787C38.8526 7.2107 38.8921 8.47651 39.5335 9.43267L43.3245 15.0854ZM41.03 7.16616C41.1063 7.03404 41.2272 6.90847 41.3792 6.80265L46.9011 2.96269C46.9465 2.931 46.9976 2.90877 47.0514 2.89728C47.1053 2.88579 47.1609 2.88527 47.2149 2.89575C47.269 2.90604 47.3206 2.92711 47.3666 2.95775C47.4127 2.98839 47.4524 3.028 47.4833 3.0743L48.2423 4.20598C48.2734 4.25218 48.2952 4.30419 48.3065 4.35902C48.3178 4.41386 48.3183 4.47042 48.308 4.52545C48.2979 4.58053 48.2772 4.63303 48.2471 4.67993C48.217 4.72684 48.178 4.76721 48.1325 4.79875L46.798 5.72671C46.6464 5.83213 46.529 5.98102 46.4606 6.1545C46.3922 6.32798 46.376 6.51824 46.4139 6.70114C46.4519 6.88403 46.5423 7.05134 46.6738 7.18182C46.8052 7.3123 46.9718 7.40009 47.1523 7.43405C54.1424 8.75006 59.2159 14.9625 59.2159 22.2055V22.8906C59.2158 23.0037 59.1716 23.1122 59.093 23.1922C59.0145 23.2721 58.908 23.3171 58.7969 23.3172H57.4511C57.3401 23.3171 57.2336 23.2721 57.1551 23.1921C57.0765 23.1121 57.0324 23.0037 57.0322 22.8906V22.2055C57.0322 19.1361 55.9447 16.1659 53.9702 13.8416C52.0163 11.5419 49.3263 10.0207 46.3955 9.55811C46.2169 9.52998 46.0341 9.55562 45.8696 9.63188C45.7051 9.70815 45.5662 9.83172 45.4698 9.98737C45.3733 10.143 45.3237 10.324 45.327 10.508C45.3303 10.692 45.3863 10.871 45.4882 11.023L46.6582 12.7674C46.6893 12.8136 46.7111 12.8656 46.7224 12.9205C46.7337 12.9753 46.7342 13.0319 46.7239 13.0869C46.7138 13.142 46.6931 13.1945 46.663 13.2414C46.6328 13.2883 46.5939 13.3287 46.5484 13.3602L45.4372 14.133C45.3918 14.1647 45.3407 14.1869 45.2868 14.1984C45.233 14.2098 45.1774 14.2104 45.1233 14.2C45.0693 14.1897 45.0177 14.1686 44.9717 14.138C44.9256 14.1073 44.8859 14.0677 44.855 14.0214L41.0638 8.36855L41.0637 8.36843C40.8223 8.00794 40.8093 7.54741 41.03 7.16616ZM63.4274 50.904L61.2 48.6614C61.3547 47.8074 61.4324 46.9408 61.4323 46.0723C61.4323 45.202 61.3542 44.3335 61.2 43.4833L63.428 41.2408C64.0508 40.6126 64.1799 39.6343 63.7419 38.862L61.7537 35.3561C61.5406 34.9796 61.2109 34.6857 60.8163 34.5203C60.4217 34.355 59.9843 34.3276 59.5728 34.4423L56.549 35.2856C55.2513 34.1577 53.7464 33.2717 52.1477 32.6942L51.3548 29.6101C51.1312 28.7471 50.3636 28.1443 49.4881 28.1443H45.512C45.0854 28.1444 44.6709 28.2885 44.3332 28.5539C43.9956 28.8194 43.7538 29.1913 43.6457 29.6115L42.8525 32.6942C41.2544 33.2715 39.7496 34.1576 38.4512 35.2856L35.4278 34.4422C34.5828 34.2069 33.686 34.5821 33.2466 35.3556L31.26 38.8602C31.0459 39.2364 30.9605 39.6744 31.0172 40.1054C31.0739 40.5364 31.2696 40.936 31.5735 41.2415L33.8003 43.4834C33.6456 44.3374 33.5678 45.2039 33.5676 46.0722C33.5676 46.9396 33.6458 47.8082 33.8002 48.6612L31.575 50.9025C31.2707 51.2076 31.0746 51.607 31.0174 52.0379C30.9602 52.4688 31.0452 52.9069 31.259 53.2833L33.2474 56.7916C33.4615 57.1669 33.7913 57.4597 34.1857 57.6244C34.5801 57.789 35.0168 57.8163 35.428 57.702L38.4509 56.8587C39.7482 57.9865 41.2529 58.8723 42.8522 59.45L43.645 62.5329C43.7532 62.9531 43.9951 63.3249 44.3328 63.5903C44.6705 63.8558 45.085 63.9998 45.5116 64H49.4878C50.3636 64 51.1314 63.3975 51.355 62.5335L52.1474 59.45C53.7475 58.8723 55.2524 57.9864 56.549 56.8587L59.5725 57.7019C59.9839 57.8165 60.4209 57.7892 60.8154 57.6242C61.2099 57.4592 61.5396 57.1658 61.7531 56.7898L63.7421 53.2824C64.1799 52.5089 64.0504 51.5306 63.4274 50.904ZM62.1366 52.3397L60.1482 55.8461C60.1396 55.8607 60.1266 55.8721 60.1111 55.8786C60.0956 55.885 60.0785 55.8862 60.0623 55.8818L56.5547 54.9037C56.4031 54.8613 56.2435 54.859 56.0908 54.8968C55.9381 54.9347 55.7973 55.0115 55.6818 55.12C54.3737 56.3475 52.7902 57.2799 51.1022 57.816C50.9521 57.8637 50.8164 57.9495 50.7078 58.0653C50.5993 58.1811 50.5214 58.3231 50.4817 58.478L49.5626 62.0544C49.5584 62.0712 49.5487 62.0862 49.5352 62.0968C49.5217 62.1074 49.505 62.1131 49.4879 62.113H45.5117C45.4949 62.113 45.4786 62.1073 45.4653 62.0968C45.452 62.0864 45.4424 62.0718 45.4381 62.0552L44.5181 58.4779C44.4783 58.323 44.4005 58.181 44.292 58.0653C44.1834 57.9495 44.0477 57.8637 43.8977 57.816C42.2107 57.28 40.6269 56.3476 39.3179 55.1197C39.2023 55.0113 39.0616 54.9347 38.909 54.8969C38.7563 54.8591 38.5967 54.8615 38.4452 54.9038L34.9389 55.8818C34.9226 55.8864 34.9053 55.8855 34.8896 55.8791C34.8739 55.8728 34.8607 55.8613 34.8519 55.8466L32.8638 52.3391C32.8554 52.3244 32.8521 52.3072 32.8545 52.2904C32.8568 52.2735 32.8647 52.258 32.8767 52.2462L35.4599 49.6444C35.5714 49.532 35.6531 49.3927 35.6973 49.2394C35.7415 49.0861 35.7468 48.9239 35.7127 48.768C35.519 47.8831 35.4212 46.9792 35.4211 46.0726C35.4211 45.1679 35.5192 44.2609 35.7127 43.3769C35.7468 43.2209 35.7415 43.0587 35.6973 42.9054C35.6531 42.7522 35.5713 42.6128 35.4598 42.5005L32.8763 39.8993C32.8643 39.8873 32.8566 39.8716 32.8544 39.8547C32.8522 39.8378 32.8557 39.8206 32.8643 39.8059L34.8513 36.3002C34.8598 36.2851 34.873 36.2734 34.8887 36.2667C34.9044 36.26 34.9218 36.2587 34.9383 36.263L38.4451 37.2412C38.5966 37.2834 38.7561 37.2858 38.9087 37.248C39.0613 37.2103 39.202 37.1337 39.3176 37.0254C40.6284 35.7969 42.2123 34.8645 43.8977 34.3288C44.0477 34.2812 44.1834 34.1954 44.2919 34.0796C44.4004 33.9639 44.4783 33.8219 44.5181 33.6671L45.4387 30.0896C45.4429 30.0731 45.4524 30.0585 45.4656 30.0481C45.4788 30.0376 45.4951 30.032 45.5118 30.0319H49.4879C49.5227 30.0319 49.5533 30.0564 49.5621 30.0899L50.4817 33.6669C50.5215 33.8217 50.5993 33.9637 50.7079 34.0795C50.8164 34.1953 50.9521 34.281 51.1022 34.3287C52.7885 34.8644 54.3722 35.7967 55.6819 37.025C55.7975 37.1334 55.9382 37.2101 56.0908 37.2479C56.2435 37.2857 56.403 37.2833 56.5545 37.241L60.0623 36.2628C60.0786 36.2585 60.0957 36.2598 60.1112 36.2664C60.1267 36.273 60.1396 36.2846 60.148 36.2994L62.1365 39.8059C62.1446 39.8208 62.1478 39.8379 62.1456 39.8548C62.1433 39.8716 62.1357 39.8873 62.124 39.8994L59.5399 42.5001C59.4282 42.6126 59.3463 42.7521 59.3021 42.9057C59.2579 43.0592 59.2527 43.2216 59.2871 43.3778C59.481 44.2624 59.5787 45.166 59.5784 46.0724C59.5784 46.9827 59.4805 47.8892 59.2871 48.7669C59.2527 48.923 59.2579 49.0854 59.3021 49.2389C59.3463 49.3925 59.4281 49.532 59.5398 49.6445L62.1243 52.2467C62.1485 52.2706 62.1534 52.3101 62.1366 52.3397Z" fill="#4C959B"/>
<path d="M54 46.4996C54 42.9158 51.0842 40 47.5004 40C43.9161 40 41 42.9158 41 46.4996C41 50.084 43.916 53 47.5004 53C51.0842 52.9999 54 50.0839 54 46.4996ZM47.5004 51.1403C44.9414 51.1403 42.8596 49.0585 42.8596 46.4995C42.8596 43.941 44.9414 41.8595 47.5004 41.8595C50.0588 41.8595 52.1404 43.941 52.1404 46.4995C52.1404 49.0585 50.0588 51.1403 47.5004 51.1403Z" fill="#4C959B"/>
<path d="M46.9999 36C41.4859 36 37 40.5365 37 46.1128C37 50.6551 40.0237 54.6653 44.3531 55.8646C44.4723 55.8977 44.5968 55.9067 44.7195 55.8911C44.8421 55.8755 44.9606 55.8356 45.068 55.7737C45.1754 55.7118 45.2697 55.6291 45.3455 55.5303C45.4213 55.4315 45.4771 55.3186 45.5097 55.198C45.5757 54.9545 45.5433 54.6945 45.4196 54.4751C45.296 54.2557 45.0913 54.095 44.8505 54.0283C41.3368 53.0549 38.8827 49.7999 38.8827 46.1128C38.8827 41.5864 42.5242 37.904 46.9999 37.904C51.4757 37.904 55.1171 41.5864 55.1171 46.1128C55.1171 49.9165 52.457 53.2832 48.7917 54.1183C48.6706 54.1453 48.5559 54.1962 48.4544 54.2681C48.3528 54.34 48.2662 54.4315 48.1997 54.5374C48.1332 54.6432 48.088 54.7613 48.0668 54.8848C48.0455 55.0084 48.0486 55.1349 48.0759 55.2573C48.1031 55.3796 48.154 55.4953 48.2256 55.5977C48.2972 55.7 48.3881 55.7871 48.493 55.8539C48.598 55.9206 48.715 55.9658 48.8373 55.9867C48.9595 56.0076 49.0847 56.0039 49.2055 55.9757C51.3844 55.4793 53.3626 54.2345 54.7754 52.4706C56.21 50.6796 57 48.4218 57 46.1128C56.9999 40.5365 52.514 36 46.9999 36Z" fill="#4C959B"/>
</g>
<defs>
<clipPath id="clip0_140_2178">
<rect width="64" height="64" fill="white"/>
</clipPath>
</defs>
</svg>
