<svg width="64" height="64" viewBox="0 0 64 64" fill="none" xmlns="http://www.w3.org/2000/svg">
<path d="M34 57H33.792L29.974 40.771C29.9404 40.6281 29.8758 40.4944 29.7847 40.3793C29.6936 40.2642 29.5783 40.1705 29.447 40.105L20 35.382V27H29C29.5801 26.999 30.1475 26.8299 30.6334 26.5131C31.1194 26.1963 31.5031 25.7454 31.738 25.215L50 29.781V31.181C49.4166 31.3873 48.9113 31.7689 48.5532 32.2735C48.1952 32.7782 48.0019 33.3812 48 34V36C48 36.2652 48.1054 36.5196 48.2929 36.7071C48.4804 36.8946 48.7348 37 49 37H53C53.2652 37 53.5196 36.8946 53.7071 36.7071C53.8946 36.5196 54 36.2652 54 36V34C53.9974 33.3817 53.8039 32.7794 53.4459 32.2753C53.0879 31.7712 52.5829 31.3901 52 31.184V29C51.9999 28.7769 51.9253 28.5603 51.7879 28.3845C51.6506 28.2088 51.4584 28.084 51.242 28.03L31.874 23.188C31.6985 22.5601 31.3228 22.0067 30.8041 21.6118C30.2854 21.2169 29.6519 21.0021 29 21H22.373L20 19.8V17C20 15.9391 19.5786 14.9217 18.8284 14.1716C18.0783 13.4214 17.0609 13 16 13H11C10.2882 13.0035 9.59056 13.1994 8.981 13.567L7.707 12.293C7.51951 12.1055 7.26519 12.0001 7 12H2C1.73478 12 1.48043 12.1054 1.29289 12.2929C1.10536 12.4804 1 12.7348 1 13V33C1 33.2652 1.10536 33.5196 1.29289 33.7071C1.48043 33.8946 1.73478 34 2 34H7.066C7.36132 36.923 8.76996 39.6204 11 41.533V62C11 62.2652 11.1054 62.5196 11.2929 62.7071C11.4804 62.8946 11.7348 63 12 63H18C18.7841 63.0048 19.5388 62.7017 20.1019 62.156C20.665 61.6103 20.9915 60.8655 21.0113 60.0816C21.0311 59.2977 20.7425 58.5373 20.2077 57.9639C19.6728 57.3905 18.9344 57.0498 18.151 57.015L19.868 45L23.21 45.836L27 58.151V62C27 62.2652 27.1054 62.5196 27.2929 62.7071C27.4804 62.8946 27.7348 63 28 63H34C34.7956 63 35.5587 62.6839 36.1213 62.1213C36.6839 61.5587 37 60.7956 37 60C37 59.2044 36.6839 58.4413 36.1213 57.8787C35.5587 57.3161 34.7956 57 34 57ZM52 35H50V34C50 33.7348 50.1054 33.4804 50.2929 33.2929C50.4804 33.1054 50.7348 33 51 33C51.2652 33 51.5196 33.1054 51.7071 33.2929C51.8946 33.4804 52 33.7348 52 34V35ZM22.134 23H29C29.2652 23 29.5196 23.1054 29.7071 23.2929C29.8946 23.4804 30 23.7348 30 24C30 24.2652 29.8946 24.5196 29.7071 24.7071C29.5196 24.8946 29.2652 25 29 25H19.447L14.647 22.213C14.3616 22.0439 14.1508 21.7731 14.057 21.4549C13.9631 21.1368 13.9931 20.7949 14.141 20.498C14.2143 20.3461 14.3173 20.2105 14.4439 20.099C14.5705 19.9875 14.7181 19.9025 14.878 19.849C15.0332 19.7966 15.1972 19.7757 15.3606 19.7878C15.5239 19.7998 15.6832 19.8444 15.829 19.919L21.686 22.892C21.8249 22.9624 21.9783 22.9994 22.134 23ZM16 15C16.5304 15 17.0391 15.2107 17.4142 15.5858C17.7893 15.9609 18 16.4696 18 17V18.781L16.729 18.136C16.3476 17.9406 15.931 17.8236 15.5037 17.7918C15.0764 17.76 14.6471 17.8142 14.241 17.951C13.8294 18.0874 13.4492 18.3048 13.1229 18.5904C12.7966 18.876 12.5307 19.2241 12.341 19.614C11.9705 20.3663 11.8987 21.231 12.1399 22.0341C12.381 22.8372 12.9174 23.5193 13.641 23.943L18 26.473V30H9V17C9 16.4696 9.21071 15.9609 9.58579 15.5858C9.96086 15.2107 10.4696 15 11 15H16ZM3 14H6.586L7.567 14.981C7.1994 15.5906 7.00348 16.2882 7 17V32H3V14ZM19 60C19 60.2652 18.8946 60.5196 18.7071 60.7071C18.5196 60.8946 18.2652 61 18 61H13V59H18C18.2652 59 18.5196 59.1054 18.7071 59.2929C18.8946 59.4804 19 59.7348 19 60ZM16.133 57H13V42.9C13.8459 43.3617 14.7467 43.7148 15.681 43.951L17.917 44.51L16.133 57ZM24.242 44.03L16.165 42.011C14.1186 41.4987 12.302 40.3173 11.0038 38.6544C9.70568 36.9916 9.00039 34.9426 9 32.833V32H18V34.382L17.447 34.105L16.553 35.895L28.134 41.685L31.737 57H28.737L24.956 44.706C24.9053 44.5414 24.8129 44.3926 24.6878 44.2742C24.5627 44.1557 24.4092 44.0716 24.242 44.03ZM34 61H29V59H34C34.2652 59 34.5196 59.1054 34.7071 59.2929C34.8946 59.4804 35 59.7348 35 60C35 60.2652 34.8946 60.5196 34.7071 60.7071C34.5196 60.8946 34.2652 61 34 61Z" fill="#4C959B"/>
<path d="M19 6.95636C19 5.7783 18.6481 4.6267 17.9888 3.64718C17.3295 2.66767 16.3925 1.90423 15.2961 1.4534C14.1997 1.00258 12.9933 0.884625 11.8295 1.11445C10.6656 1.34428 9.59648 1.91157 8.75736 2.74458C7.91825 3.57759 7.3468 4.63891 7.11529 5.79433C6.88378 6.94975 7.0026 8.14737 7.45673 9.23575C7.91085 10.3241 8.67989 11.2544 9.66658 11.9089C10.6533 12.5634 11.8133 12.9127 13 12.9127C14.5908 12.9111 16.116 12.2831 17.2409 11.1664C18.3658 10.0497 18.9984 8.53559 19 6.95636ZM13 10.9273C12.2089 10.9273 11.4355 10.6944 10.7777 10.258C10.1199 9.82171 9.60723 9.20154 9.30448 8.47595C9.00173 7.75037 8.92252 6.95195 9.07686 6.18167C9.2312 5.41139 9.61217 4.70384 10.1716 4.1485C10.731 3.59316 11.4437 3.21497 12.2196 3.06175C12.9956 2.90854 13.7998 2.98717 14.5307 3.28772C15.2616 3.58827 15.8864 4.09723 16.3259 4.75024C16.7654 5.40325 17 6.17098 17 6.95636C17 8.0095 16.5786 9.01952 15.8284 9.76421C15.0783 10.5089 14.0609 10.9273 13 10.9273ZM50 38.7236H52V40.709H50V38.7236ZM50 42.6945H52V44.6799H50V42.6945ZM50 46.6654H52V48.6508H50V46.6654ZM44.293 40.0072L46.293 38.0217L47.707 39.4264L45.707 41.4119L44.293 40.0072ZM41.293 42.9853L43.293 40.9999L44.707 42.4036L42.707 44.3891L41.293 42.9853ZM38.293 45.9625L40.293 43.9771L41.707 45.3818L39.707 47.3672L38.293 45.9625ZM53.293 39.4264L54.707 38.0217L56.707 40.0072L55.293 41.4109L53.293 39.4264ZM56.293 42.4046L57.707 40.9999L59.707 42.9853L58.293 44.3891L56.293 42.4046ZM59.293 45.3828L60.708 43.9781L62.708 45.9635L61.293 47.3672L59.293 45.3828ZM47.734 53.8636L48.447 53.5102C48.6409 53.4141 48.7982 53.258 48.895 53.0655L49.895 51.08L48.105 50.1925L47.255 51.8802L46.828 52.0916C46.6658 51.8925 46.4861 51.7081 46.291 51.5406C46.7454 51.0111 46.9966 50.3392 47 49.6435C47 48.8537 46.6839 48.0962 46.1213 47.5377C45.5587 46.9791 44.7957 46.6654 44 46.6654C43.2044 46.6654 42.4413 46.9791 41.8787 47.5377C41.3161 48.0962 41 48.8537 41 49.6435C41.003 50.3398 41.2541 51.0126 41.709 51.5426C41.5139 51.7101 41.3342 51.8945 41.172 52.0936L40.745 51.8821L39.895 50.1945L38.105 51.082L39.105 53.0675C39.2018 53.26 39.3591 53.4161 39.553 53.5122L40.266 53.8656C40.0926 54.4277 40.003 55.012 40 55.5999H38V57.5854H40.339C40.4123 57.7837 40.4971 57.9776 40.593 58.1661L39.553 58.6823C39.3591 58.7784 39.2018 58.9345 39.105 59.1271L38.105 61.1125L39.895 62L40.745 60.3124L41.845 59.7684C42.4445 60.2828 43.2105 60.5659 44.003 60.5659C44.7955 60.5659 45.5615 60.2828 46.161 59.7684L47.261 60.3124L48.111 62L49.901 61.1125L48.901 59.1271C48.8042 58.9345 48.6469 58.7784 48.453 58.6823L47.413 58.1661C47.5069 57.9774 47.5897 57.7835 47.661 57.5854H50V55.5999H48C47.9972 55.0114 47.9076 54.4264 47.734 53.8636ZM44 48.6508C44.1978 48.6508 44.3911 48.709 44.5556 48.8181C44.72 48.9272 44.8482 49.0823 44.9239 49.2636C44.9996 49.445 45.0194 49.6446 44.9808 49.8372C44.9422 50.0298 44.847 50.2067 44.7071 50.3455C44.5673 50.4843 44.3891 50.5789 44.1951 50.6172C44.0011 50.6555 43.8 50.6358 43.6173 50.5607C43.4346 50.4856 43.2784 50.3583 43.1685 50.1951C43.0586 50.0318 43 49.8399 43 49.6435C43 49.3803 43.1054 49.1278 43.2929 48.9416C43.4804 48.7554 43.7348 48.6508 44 48.6508ZM44 58.5781C42.916 58.5781 42 57.2141 42 55.5999C42 53.9857 42.916 52.6217 44 52.6217C45.084 52.6217 46 53.9857 46 55.5999C46 57.2141 45.084 58.5781 44 58.5781ZM63 57.5854V55.5999H61C60.9972 55.0114 60.9076 54.4264 60.734 53.8636L61.447 53.5102C61.6409 53.4141 61.7982 53.258 61.895 53.0655L62.895 51.08L61.105 50.1925L60.255 51.8802L59.828 52.0916C59.6658 51.8925 59.4861 51.7081 59.291 51.5406C59.7454 51.0111 59.9966 50.3392 60 49.6435C60 48.8537 59.6839 48.0962 59.1213 47.5377C58.5587 46.9791 57.7957 46.6654 57 46.6654C56.2044 46.6654 55.4413 46.9791 54.8787 47.5377C54.3161 48.0962 54 48.8537 54 49.6435C54.0029 50.3398 54.2541 51.0126 54.709 51.5426C54.5139 51.7101 54.3342 51.8945 54.172 52.0936L53.745 51.8821L52.895 50.1945L51.105 51.082L52.105 53.0675C52.2018 53.26 52.3591 53.4161 52.553 53.5122L53.266 53.8656C53.0926 54.4277 53.003 55.012 53 55.5999H51V57.5854H53.339C53.4123 57.7837 53.4971 57.9776 53.593 58.1661L52.553 58.6823C52.3591 58.7784 52.2018 58.9345 52.105 59.1271L51.105 61.1125L52.895 62L53.745 60.3124L54.845 59.7684C55.4445 60.2828 56.2105 60.5659 57.003 60.5659C57.7955 60.5659 58.5615 60.2828 59.161 59.7684L60.261 60.3124L61.111 62L62.901 61.1125L61.901 59.1271C61.8042 58.9345 61.6469 58.7784 61.453 58.6823L60.413 58.1661C60.5069 57.9774 60.5897 57.7835 60.661 57.5854H63ZM57 48.6508C57.1978 48.6508 57.3911 48.709 57.5556 48.8181C57.72 48.9272 57.8482 49.0823 57.9239 49.2636C57.9996 49.445 58.0194 49.6446 57.9808 49.8372C57.9422 50.0298 57.847 50.2067 57.7071 50.3455C57.5673 50.4843 57.3891 50.5789 57.1951 50.6172C57.0011 50.6555 56.8 50.6358 56.6173 50.5607C56.4346 50.4856 56.2784 50.3583 56.1685 50.1951C56.0586 50.0318 56 49.8399 56 49.6435C56 49.3803 56.1054 49.1278 56.2929 48.9416C56.4804 48.7554 56.7348 48.6508 57 48.6508ZM57 58.5781C55.916 58.5781 55 57.2141 55 55.5999C55 53.9857 55.916 52.6217 57 52.6217C58.084 52.6217 59 53.9857 59 55.5999C59 57.2141 58.084 58.5781 57 58.5781Z" fill="#4C959B"/>
</svg>
