<svg width="64" height="64" viewBox="0 0 64 64" fill="none" xmlns="http://www.w3.org/2000/svg">
<path d="M51.2 38.7L41 35.3V32.2C42.3 30.6 43.2 28.8 43.7 26.8L46.8 24.5C47.6 23.9 48 23 48 22.1V21.1C48 19.4 46.7 18.1 45 18.1H44V12.2L45.3 7.5C45.8 5.9 44.8 4.2 43.2 3.8C43.1 3.8 43 3.7 42.8 3.7L32 2L21.1 3.7C19.5 4 18.3 5.5 18.6 7.1C18.6 7.2 18.6 7.3 18.7 7.5L20 12.2V18H19C17.3 18 16 19.3 16 21V22C16 22.9 16.4 23.8 17.2 24.4L20.3 26.7C20.8 28.7 21.7 30.6 23 32.1V35.2L12.8 38.6C9.9 39.6 8 42.2 8 45.2V62H56V45.3C56 42.3 54.1 39.6 51.2 38.7ZM25 34.1C25.1 34.2 25.2 34.3 25.4 34.4L26.2 35C27.6 36 29.3 36.7 31.1 36.9V41.5L25.1 38.5V34.1H25ZM33 36.8C34.8 36.6 36.4 36 37.9 34.9L38.7 34.3C38.8 34.2 38.9 34.1 39.1 34V38.3L33.1 41.3L33 36.8ZM42 13V15H22V13H42ZM41 17C36.6 22 28.9 22.4 24 17.9L23.1 17H41ZM45 20C45.6 20 46 20.4 46 21V22C46 22.3 45.9 22.6 45.6 22.8L44 24V20H45ZM20.7 6.1C20.9 5.9 21.1 5.7 21.4 5.7L32 4L42.6 5.6C43.1 5.7 43.5 6.2 43.4 6.7V6.8L42.2 11H21.8L20.6 6.9C20.5 6.6 20.5 6.3 20.7 6.1ZM18.4 22.8C18.1 22.6 18 22.3 18 22V21C18 20.4 18.4 20 19 20H20V24L18.4 22.8ZM22 18.8C27.4 24.3 36.3 24.4 41.8 19L42 18.8V23.9C42 27.4 40.3 30.7 37.5 32.8L36.7 33.4C33.9 35.4 30.1 35.4 27.3 33.4L26.5 32.8C23.7 30.7 22 27.4 22 23.9V18.8ZM10 45.3C10 43.1 11.4 41.2 13.4 40.6L23 37.4V39.6L30 43.1L28 44.4V60H20V51H18V60H10V45.3ZM54 60H46V51H44V60H30V45.5L32.5 43.8L41 39.6V37.4L50.6 40.6C52.6 41.3 54 43.2 54 45.3V60Z" fill="#4C959B"/>
<path d="M32 52H34V54H32V52ZM32 56H34V58H32V56ZM32 48H34V50H32V48ZM36 47H44V49H36V47Z" fill="#4C959B"/>
</svg>
