<svg width="25" height="24" viewBox="0 0 25 24" fill="none" xmlns="http://www.w3.org/2000/svg">
<path d="M20.9559 16.9817C21.9681 15.3327 22.5026 13.4351 22.5 11.5003C22.5027 9.56536 21.9681 7.66746 20.9559 6.01842L20.9502 6.00922C20.0112 4.47865 18.6953 3.21448 17.1283 2.33749C15.5613 1.4605 13.7956 1 11.9999 1C10.2042 1 8.43853 1.4605 6.87156 2.33749C5.30459 3.21448 3.9887 4.47865 3.04965 6.00922L3.04398 6.01842C2.0343 7.66857 1.5 9.56551 1.5 11.5C1.5 13.4346 2.0343 15.3315 3.04398 16.9817L3.04988 16.9911C3.98897 18.5216 5.30486 19.7857 6.87183 20.6626C8.43879 21.5396 10.2045 22 12.0001 22C13.7958 22 15.5614 21.5395 17.1284 20.6625C18.6953 19.7855 20.0112 18.5214 20.9502 16.9909L20.9559 16.9817ZM13.3421 20.2003C13.1419 20.3934 12.9116 20.5524 12.6601 20.6712C12.4538 20.7693 12.2283 20.8201 11.9998 20.8201C11.7714 20.8201 11.5458 20.7693 11.3395 20.6712C10.8611 20.4269 10.4516 20.0665 10.1484 19.6231C9.5292 18.7283 9.07035 17.7326 8.79235 16.6806C9.86044 16.6148 10.9296 16.5813 11.9999 16.5801C13.0698 16.5801 14.139 16.6136 15.2078 16.6806C15.0538 17.2215 14.8616 17.7507 14.6325 18.2643C14.3308 18.9866 13.8927 19.6439 13.3421 20.2003ZM2.7002 12.0899H6.93537C6.96297 13.2716 7.09109 14.4489 7.31833 15.6089C6.16057 15.7108 5.0058 15.8508 3.85402 16.0289C3.17948 14.8188 2.78518 13.4727 2.7002 12.0899ZM3.85402 6.97143C5.00533 7.1498 6.16049 7.2898 7.31951 7.39142C7.09187 8.5513 6.96352 9.72847 6.93585 10.9102H2.7002C2.78521 9.52745 3.17951 8.18146 3.85402 6.97143ZM10.6578 2.79981C10.8579 2.6067 11.0883 2.44762 11.3397 2.32885C11.5461 2.23082 11.7716 2.17996 12.0001 2.17996C12.2285 2.17996 12.4541 2.23082 12.6604 2.32885C13.1388 2.57319 13.5483 2.93353 13.8515 3.37695C14.4707 4.27176 14.9295 5.26745 15.2075 6.31949C14.1394 6.38524 13.0702 6.41875 11.9999 6.42001C10.9301 6.42001 9.86084 6.3865 8.79211 6.31949C8.94602 5.7786 9.13826 5.24936 9.36737 4.73579C9.66907 4.01351 10.1072 3.35618 10.6578 2.79981ZM21.2997 10.9102H17.0645C17.0369 9.72843 16.9088 8.55119 16.6815 7.39118C17.8393 7.28925 18.9941 7.14925 20.1459 6.97119C20.8204 8.18129 21.2147 9.52737 21.2997 10.9102ZM8.50495 15.5171C8.27426 14.3884 8.14398 13.2416 8.11563 12.0899H15.8845C15.8564 13.2416 15.7264 14.3886 15.4959 15.5173C14.3318 15.4409 13.1665 15.4019 11.9999 15.4003C10.8343 15.4003 9.66932 15.4392 8.50495 15.5171ZM15.4949 7.48297C15.7256 8.61163 15.8559 9.75851 15.8842 10.9102H8.11563C8.14371 9.75845 8.27376 8.61149 8.50425 7.48273C9.6683 7.55918 10.8336 7.59819 12.0002 7.59976C13.1658 7.59976 14.3308 7.56075 15.4952 7.48273L15.4949 7.48297ZM17.064 12.0899H21.2997C21.2147 13.4726 20.8204 14.8186 20.1459 16.0286C18.9944 15.8503 17.8392 15.7103 16.6804 15.6087C16.908 14.4488 17.0364 13.2716 17.064 12.0899ZM19.4385 5.88558C18.4317 6.03077 17.4221 6.14575 16.4095 6.23054C16.2275 5.5529 15.9928 4.89053 15.7075 4.24949C15.447 3.65963 15.1192 3.10184 14.7307 2.58722C16.6083 3.16309 18.256 4.31749 19.4385 5.88558ZM5.40968 4.90968C6.48681 3.83155 7.81196 3.0341 9.26898 2.58722C9.2468 2.616 9.22415 2.64337 9.20244 2.67239C8.45351 3.75043 7.90798 4.95631 7.59275 6.23054C6.58002 6.14481 5.56966 6.02982 4.56165 5.88558C4.82159 5.5412 5.10494 5.21513 5.40968 4.90968ZM4.56165 17.1145C5.56824 16.9693 6.5779 16.8543 7.59062 16.7695C7.7726 17.4472 8.0073 18.1095 8.29259 18.7506C8.55311 19.3404 8.88091 19.8982 9.26945 20.4129C7.3918 19.837 5.74411 18.6826 4.56165 17.1145ZM18.5907 18.0904C17.5135 19.1685 16.1884 19.966 14.7314 20.4129C14.7535 20.3841 14.7762 20.3567 14.7979 20.3277C15.5468 19.2496 16.0924 18.0438 16.4076 16.7695C17.4203 16.8553 18.4307 16.9703 19.4387 17.1145C19.1788 17.4589 18.8954 17.7849 18.5907 18.0904Z" fill="white"/>
</svg>
