<svg width="1154" height="1044" viewBox="0 0 1154 1044" fill="none" xmlns="http://www.w3.org/2000/svg">
<path d="M52.1797 68.8648C-33.8498 -30.7349 7.14119 -115.414 38.3904 -145.304L483.106 -621.901L2122.84 908.142L1678.12 1384.74C1650.46 1417.98 1568.82 1464.73 1463.51 1385.79C1331.88 1287.11 1292.94 1335.33 1240.48 1354.82C1188.03 1374.32 1124.8 1383.76 1049.56 1259.21C974.324 1134.65 883.167 1031.47 742.413 1028.97C629.809 1026.96 564.749 977.932 542.968 957.608C521.188 937.285 467.775 875.77 457.991 763.574C445.762 623.329 336.531 539.523 207.072 473.075C77.6124 406.627 82.6632 342.897 98.4877 289.221C114.312 235.544 159.717 193.364 52.1797 68.8648Z" fill="url(#paint0_linear_101_328)"/>
<defs>
<linearGradient id="paint0_linear_101_328" x1="286.598" y1="876.016" x2="-500.09" y2="341.438" gradientUnits="userSpaceOnUse">
<stop stop-color="#57AAA9"/>
<stop offset="1" stop-color="#356A7E"/>
</linearGradient>
</defs>
</svg>
