<svg width="792" height="1044" viewBox="0 0 792 1044" fill="none" xmlns="http://www.w3.org/2000/svg">
<path d="M47.1803 -95.095C-6.00494 -215.473 57.9317 -284.487 96.5482 -303.946L661.072 -629.874L1782.37 1312.28L1617.96 1488.15C1581.8 1511.87 1490.07 1532.73 1412.41 1426.48C1315.34 1293.67 1264.01 1328.4 1208.15 1331.73C1152.29 1335.06 762.767 1425.83 653.374 1324.58C546.582 1225.75 560.755 1068.2 426.872 1024.69C319.765 989.892 271.865 923.998 256.971 898.201C242.077 872.403 208.961 797.973 232.375 687.816C261.643 550.119 181.655 438.069 77.2517 336.713C-27.1521 235.358 -3.70701 175.884 27.1054 129.17C57.9178 82.4568 113.662 55.3776 47.1803 -95.095Z" fill="url(#paint0_linear_101_330)"/>
<defs>
<linearGradient id="paint0_linear_101_330" x1="757" y1="1405.5" x2="-532.458" y2="-0.342622" gradientUnits="userSpaceOnUse">
<stop stop-color="#57AAA9"/>
<stop offset="1" stop-color="#356A7E"/>
</linearGradient>
</defs>
</svg>
