<svg width="64" height="64" viewBox="0 0 64 64" fill="none" xmlns="http://www.w3.org/2000/svg">
<path d="M40.5 31C41.3284 31 42 30.3284 42 29.5C42 28.6716 41.3284 28 40.5 28C39.6716 28 39 28.6716 39 29.5C39 30.3284 39.6716 31 40.5 31Z" fill="#4C959B"/>
<path d="M57.2295 32.7117H56.9842V29.906C56.9842 17.3481 47.6046 6.934 35.46 5.25C35.6655 4.77912 35.7714 4.27109 35.771 3.75762C35.7711 1.68562 34.0794 0 32.0002 0C29.921 0 28.2293 1.68562 28.2293 3.75762C28.2293 4.28775 28.3407 4.79225 28.5402 5.25C16.3958 6.934 7.01617 17.3481 7.01617 29.906V32.7117H6.77093C4.69172 32.7117 3 34.3974 3 36.4693C3 38.5413 4.69159 40.227 6.77093 40.227H19.3048C19.1967 40.4808 19.1148 40.7448 19.0603 41.0151L17.9805 46.3947C14.6751 48.201 14.1774 51.755 14.1263 53.3272L10.2793 55.8467C9.68233 56.2376 9.53518 57.0763 9.96495 57.6461L14.3845 63.5042C14.7832 64.0326 15.5515 64.1588 16.0995 63.785L24.5458 58.0215C29.1767 56.3883 31.3352 53.1637 32.5567 50.7465C33.9213 49.8161 40.1774 45.5725 44.35 43.106C45.3775 42.4986 45.907 41.3752 45.7446 40.2268H57.2291C59.3083 40.2268 61 38.5412 61 36.4692C61 34.3972 59.3087 32.7117 57.2295 32.7117ZM30.7433 3.75762C30.7433 3.067 31.3071 2.50512 32.0002 2.50512C32.6933 2.50512 33.2571 3.067 33.2571 3.75762C33.2571 4.44825 32.6933 5.01012 32.0002 5.01012C31.3071 5.01012 30.7433 4.44825 30.7433 3.75762ZM9.53004 29.906C9.53004 17.5596 19.6101 7.51512 32.0002 7.51512C43.6439 7.51512 53.2465 16.3861 54.3613 27.7016H45.701C45.0068 27.7016 44.4441 28.2624 44.4441 28.9541C44.4441 29.6459 45.0068 30.2066 45.701 30.2066H54.4703V32.7116H9.53004V29.906ZM43.2449 40.5141C43.297 40.7038 43.2375 40.851 43.0676 40.9515C38.312 43.7626 30.9371 48.8156 30.8631 48.8663C30.6843 48.9889 30.5405 49.1555 30.4456 49.35C28.8177 52.6831 26.6967 54.644 23.5684 55.708C23.4606 55.7447 15.6716 61.041 15.6716 61.041L12.7793 57.2072L16.0799 55.0453C16.2682 54.922 16.4198 54.7504 16.5188 54.5486C16.6178 54.3468 16.6604 54.1222 16.6424 53.8983C16.6391 53.8576 16.3515 49.809 19.5964 48.3918C19.7816 48.311 19.9444 48.1868 20.0712 48.0298C20.1979 47.8729 20.2847 47.6878 20.3244 47.4902L21.5254 41.5061C21.6741 40.7648 22.3328 40.2268 23.0915 40.2268C23.5653 40.2268 23.9961 40.4243 24.3043 40.7828C24.6126 41.1415 24.7423 41.596 24.6696 42.0625L24.6659 42.0875L24.0707 46.4891C24.0396 46.7195 24.0735 46.954 24.1686 47.1663C24.2636 47.3786 24.416 47.5604 24.6088 47.6913C24.8017 47.8222 25.0272 47.897 25.2603 47.9074C25.4933 47.9179 25.7247 47.8635 25.9285 47.7503L39.4708 40.2267H42.8668C43.0652 40.2268 43.1924 40.3235 43.2449 40.5141ZM26.8789 40.2268H34.3085L26.8976 44.3441L27.1558 42.4336C27.2697 41.6866 27.1739 40.9228 26.8789 40.2268ZM57.2295 37.7218H6.77093C6.07786 37.7218 5.51399 37.16 5.51399 36.4693C5.51399 35.7787 6.07786 35.2168 6.77093 35.2168H57.2293C57.9224 35.2168 58.4863 35.7787 58.4863 36.4693C58.4863 37.16 57.9225 37.7218 57.2295 37.7218Z" fill="#4C959B"/>
<path d="M23.2672 13.1176C19.472 14.9352 16.485 18.2927 15.0719 22.3293C14.8448 22.9783 15.1736 23.6933 15.8063 23.9262C15.9423 23.9762 16.081 24 16.2176 24C16.7168 24 17.185 23.6825 17.3635 23.1731C18.5587 19.7585 21.0861 16.918 24.2975 15.38C24.9067 15.0882 25.1698 14.3454 24.8854 13.7205C24.6009 13.0957 23.8764 12.8258 23.2672 13.1176Z" fill="#4C959B"/>
</svg>
