<svg width="64" height="64" viewBox="0 0 64 64" fill="none" xmlns="http://www.w3.org/2000/svg">
<path d="M61 25H47V19H49C49.2652 19 49.5196 18.8946 49.7071 18.7071C49.8946 18.5196 50 18.2652 50 18V14C50 13.7348 49.8946 13.4804 49.7071 13.2929C49.5196 13.1054 49.2652 13 49 13H45V9.01C45 8.6 45 8.59 41 4.55V2H39V4.96C39.0026 5.09916 39.0332 5.23637 39.0899 5.36349C39.1466 5.49061 39.2282 5.60505 39.33 5.7C39.33 5.7 42.1 8.51 43 9.42V12.99C42.52 13 42.04 13 42.04 13C41.7668 13.0083 41.5071 13.1205 41.3138 13.3138C41.1205 13.5071 41.0083 13.7668 41 14.04V19.32C41.0165 19.7164 40.8872 20.1052 40.6367 20.4129C40.3861 20.7205 40.0316 20.9258 39.64 20.99C39.2648 21.026 38.8899 20.9194 38.5897 20.6915C38.2895 20.4636 38.0861 20.1311 38.02 19.76C38.0179 19.7388 38.0111 19.7182 38 19.7V15H36V19.7C36 19.72 35.98 19.74 35.98 19.76C35.9233 20.111 35.7439 20.4304 35.4736 20.6613C35.2033 20.8923 34.8598 21.0197 34.5042 21.0209C34.1487 21.0221 33.8044 20.897 33.5325 20.6679C33.2607 20.4388 33.079 20.1206 33.02 19.77C33.0194 19.7453 33.0125 19.7213 33 19.7V15H31V19.7C30.9889 19.7182 30.9821 19.7388 30.98 19.76C30.9221 20.1108 30.7416 20.4296 30.4705 20.6596C30.1995 20.8896 29.8555 21.0159 29.5 21.0159C29.1445 21.0159 28.8005 20.8896 28.5295 20.6596C28.2584 20.4296 28.0779 20.1108 28.02 19.76C28.0179 19.7388 28.0111 19.7182 28 19.7V15H26V19.7C26 19.72 25.98 19.74 25.98 19.76C25.9139 20.1311 25.7105 20.4636 25.4103 20.6915C25.1101 20.9194 24.7352 21.026 24.36 20.99C23.9684 20.9258 23.6139 20.7205 23.3633 20.4129C23.1128 20.1052 22.9835 19.7164 23 19.32V8.3L24.81 5.59C24.9322 5.41362 24.9984 5.20454 25 4.99V2H23V4.7L21.19 7.41C21.0678 7.58638 21.0016 7.79546 21 8.01V13H15C14.7348 13 14.4804 13.1054 14.2929 13.2929C14.1054 13.4804 14 13.7348 14 14V18C14 18.2652 14.1054 18.5196 14.2929 18.7071C14.4804 18.8946 14.7348 19 15 19H17V25H3C2.73478 25 2.48043 25.1054 2.29289 25.2929C2.10536 25.4804 2 25.7348 2 26V61C2 61.2652 2.10536 61.5196 2.29289 61.7071C2.48043 61.8946 2.73478 62 3 62H61C61.2652 62 61.5196 61.8946 61.7071 61.7071C61.8946 61.5196 62 61.2652 62 61V26C62 25.7348 61.8946 25.4804 61.7071 25.2929C61.5196 25.1054 61.2652 25 61 25ZM43 15H48V17H43V15ZM43 19H45V25H43V19ZM23 22.64C23.3702 22.8327 23.7744 22.9516 24.19 22.99C24.29 23 24.4 23 24.5 23C24.9649 23.0014 25.4254 22.9101 25.8546 22.7315C26.2839 22.553 26.6732 22.2907 27 21.96C27.3274 22.2904 27.7172 22.5524 28.1467 22.7309C28.5763 22.9095 29.037 23.0009 29.5021 23C29.9672 22.999 30.4276 22.9058 30.8563 22.7255C31.2851 22.5453 31.6739 22.2817 32 21.95C32.3261 22.2817 32.7149 22.5453 33.1437 22.7255C33.5724 22.9058 34.0328 22.999 34.4979 23C34.963 23.0009 35.4237 22.9095 35.8533 22.7309C36.2828 22.5524 36.6726 22.2904 37 21.96C37.3643 22.3272 37.8048 22.6097 38.2904 22.7877C38.776 22.9657 39.2948 23.0348 39.81 22.99C40.2256 22.9516 40.6298 22.8327 41 22.64V25H23V22.64ZM16 17V15H21V17H16ZM21 19V25H19V19H21ZM60 60H4V39H7V42C7 42.2652 7.10536 42.5196 7.29289 42.7071C7.48043 42.8946 7.73478 43 8 43H13C13.2652 43 13.5196 42.8946 13.7071 42.7071C13.8946 42.5196 14 42.2652 14 42V39H18.92C19.1299 39.6397 19.4368 40.2434 19.83 40.79C20.4769 41.6858 21.3274 42.415 22.3115 42.9175C23.2956 43.42 24.385 43.6813 25.49 43.68C26.194 43.6648 26.882 43.8906 27.44 44.32L25.51 46.24H24.51C24.3515 46.2415 24.1955 46.2802 24.0548 46.3532C23.9141 46.4262 23.7925 46.5313 23.7 46.66L20.17 51.61C20.0311 51.802 19.9649 52.0371 19.9833 52.2734C20.0016 52.5096 20.1032 52.7317 20.27 52.9L23.1 55.73C23.2891 55.9165 23.5443 56.0208 23.81 56.02C24.0186 56.0199 24.2218 55.9534 24.39 55.83L29.34 52.3C29.4687 52.2075 29.5738 52.0859 29.6468 51.9452C29.7198 51.8045 29.7585 51.6485 29.76 51.49V50.49L31.71 48.53L37.53 54.37C38.2819 55.1219 39.3017 55.5443 40.365 55.5443C41.4283 55.5443 42.4481 55.1219 43.2 54.37C43.9519 53.6181 44.3743 52.5983 44.3743 51.535C44.3743 50.4717 43.9519 49.4519 43.2 48.7L38.08 43.58L42.66 39H50V42C50 42.2652 50.1054 42.5196 50.2929 42.7071C50.4804 42.8946 50.7348 43 51 43H56C56.2652 43 56.5196 42.8946 56.7071 42.7071C56.8946 42.5196 57 42.2652 57 42V39H60V60ZM9 41V36H12V41H9ZM27.64 34.56L24.81 31.74C25.5777 31.6301 26.3604 31.7003 27.0963 31.945C27.8321 32.1897 28.501 32.6023 29.05 33.15C29.525 33.6195 29.8994 34.1808 30.1504 34.7998C30.4014 35.4187 30.5238 36.0823 30.51 36.75C30.5002 37.6079 30.7175 38.4532 31.14 39.2L30.88 39.46C30.6926 39.6488 30.5875 39.904 30.5875 40.17C30.5875 40.436 30.6926 40.6912 30.88 40.88L28.85 42.9C27.9266 42.1063 26.7476 41.673 25.53 41.68C24.7349 41.6808 23.9509 41.4937 23.2419 41.134C22.5329 40.7742 21.9189 40.2521 21.45 39.61C20.6975 38.5597 20.382 37.2583 20.57 35.98L23.39 38.81C23.5225 38.9416 23.6891 39.0337 23.871 39.0761C24.0529 39.1185 24.2429 39.1094 24.42 39.05L26.54 38.34C26.6862 38.2901 26.8189 38.2073 26.9281 38.0981C27.0373 37.9889 27.1201 37.8562 27.17 37.71L27.88 35.59C27.9371 35.4127 27.9449 35.2232 27.9026 35.0418C27.8603 34.8604 27.7696 34.6938 27.64 34.56ZM35.83 43L33 40.17L40.07 33.1C40.4502 32.7342 40.9574 32.5299 41.485 32.5299C42.0126 32.5299 42.5198 32.7342 42.9 33.1C43.0869 33.2852 43.2353 33.5056 43.3365 33.7485C43.4378 33.9913 43.4899 34.2519 43.4899 34.515C43.4899 34.7781 43.4378 35.0387 43.3365 35.2815C43.2353 35.5244 43.0869 35.7448 42.9 35.93L35.83 43ZM36.66 45L41.78 50.12C42.1537 50.4955 42.3644 51.0032 42.3662 51.5329C42.3681 52.0627 42.1611 52.5719 41.79 52.95C41.4077 53.3158 40.8991 53.5199 40.37 53.5199C39.8409 53.5199 39.3323 53.3158 38.95 52.95L33.12 47.12L35.12 45.12C35.2131 45.2131 35.3239 45.2868 35.4458 45.3365C35.5677 45.3863 35.6983 45.4113 35.83 45.41C36.0957 45.4108 36.3509 45.3065 36.54 45.12L36.66 45ZM33.71 43.71L28.05 49.36C27.8635 49.5492 27.7592 49.8043 27.76 50.07V50.97L23.92 53.71L22.29 52.08L25.03 48.24H25.93C26.1957 48.2408 26.4508 48.1365 26.64 47.95L32.29 42.29L33.71 43.71ZM52 41V36H55V41H52ZM60 37H57V35C57 34.7348 56.8946 34.4804 56.7071 34.2929C56.5196 34.1054 56.2652 34 56 34H51C50.7348 34 50.4804 34.1054 50.2929 34.2929C50.1054 34.4804 50 34.7348 50 35V37H44.6C45.1697 36.2945 45.4834 35.4168 45.49 34.51C45.4886 33.7193 45.253 32.9467 44.8127 32.2898C44.3725 31.633 43.7474 31.1214 43.0165 30.8196C42.2857 30.5178 41.4817 30.4394 40.7063 30.5944C39.9309 30.7493 39.2188 31.1306 38.66 31.69L32.66 37.69C32.5608 37.3934 32.5102 37.0827 32.51 36.77C32.5284 35.8347 32.3561 34.9055 32.0037 34.039C31.6512 33.1725 31.126 32.3869 30.46 31.73C29.435 30.7106 28.1195 30.0335 26.6942 29.7918C25.269 29.5501 23.8038 29.7555 22.5 30.38C22.355 30.448 22.2285 30.5497 22.1311 30.6768C22.0336 30.8038 21.9681 30.9524 21.94 31.11C21.9143 31.2684 21.9263 31.4305 21.9749 31.5834C22.0236 31.7363 22.1075 31.8756 22.22 31.99L25.78 35.54L25.43 36.6L24.37 36.96L20.81 33.39C20.6966 33.2769 20.5577 33.1927 20.405 33.1444C20.2523 33.0962 20.0902 33.0853 19.9324 33.1128C19.7747 33.1402 19.6258 33.2052 19.4983 33.3021C19.3708 33.3991 19.2685 33.5253 19.2 33.67C18.7092 34.7087 18.4825 35.8526 18.54 37H14V35C14 34.7348 13.8946 34.4804 13.7071 34.2929C13.5196 34.1054 13.2652 34 13 34H8C7.73478 34 7.48043 34.1054 7.29289 34.2929C7.10536 34.4804 7 34.7348 7 35V37H4V27H60V37Z" fill="#4C959B"/>
</svg>
